<?xml version="1.0" encoding="utf-8"?><svg viewBox="0 0 153 690" xmlns="http://www.w3.org/2000/svg" xmlns:xlink="http://www.w3.org/1999/xlink"><style>:root>svg{display:none}:root>svg:target{display:block}</style><svg viewBox="0 0 61 8" id="arrow" xmlns="http://www.w3.org/2000/svg"><path d="M60.354 4.354a.5.5 0 000-.708L57.172.464a.5.5 0 10-.707.708L59.293 4l-2.828 2.828a.5.5 0 10.707.708l3.182-3.182zM0 4.5h60v-1H0v1z" fill="#393939"/></svg><svg fill="none" viewBox="0 0 61 8" id="back" xmlns="http://www.w3.org/2000/svg"><path d="M.646 3.646a.5.5 0 000 .708l3.182 3.182a.5.5 0 10.708-.708L1.707 4l2.829-2.828a.5.5 0 00-.708-.708L.646 3.646zM61 3.5H1v1h60v-1z" fill="#393939"/></svg><svg viewBox="0 0 64 64" id="brendMarcet" xmlns="http://www.w3.org/2000/svg"><path d="M35.324 62.27h-7.279a2.536 2.536 0 01-1.655-.626 2.583 2.583 0 01-.855-1.561l-.48-3.286a25.74 25.74 0 01-6.05-2.527l-2.62 1.975a2.532 2.532 0 01-3.31-.243L7.92 50.794a2.594 2.594 0 01-.24-3.343l1.955-2.646a26.293 26.293 0 01-2.502-6.108L3.88 38.21a2.544 2.544 0 01-1.546-.864 2.592 2.592 0 01-.62-1.67v-7.352a2.593 2.593 0 01.62-1.67 2.546 2.546 0 011.545-.865l3.254-.486a26.325 26.325 0 012.502-6.108L7.68 16.549a2.594 2.594 0 01.24-3.342l5.155-5.208a2.533 2.533 0 013.31-.242l2.62 1.974a25.737 25.737 0 016.049-2.527l.48-3.286c.092-.607.395-1.16.855-1.562a2.536 2.536 0 011.654-.626h7.279a2.536 2.536 0 011.654.625c.46.401.764.955.856 1.562l.48 3.286a25.739 25.739 0 016.049 2.527l2.62-1.974a2.533 2.533 0 013.31.242l5.156 5.208a2.594 2.594 0 01.24 3.343l-1.955 2.646a26.326 26.326 0 012.502 6.108l3.254.486c.6.093 1.148.4 1.545.864.398.464.618 1.057.621 1.67v7.352a2.592 2.592 0 01-.62 1.671 2.544 2.544 0 01-1.546.864l-3.254.486a26.29 26.29 0 01-2.5 6.108l1.953 2.647a2.594 2.594 0 01-.24 3.343L50.292 56a2.531 2.531 0 01-3.31.243l-2.62-1.975a25.741 25.741 0 01-6.05 2.527l-.48 3.286a2.583 2.583 0 01-.854 1.562 2.536 2.536 0 01-1.654.626zm-16.377-9.899a.85.85 0 01.44.123 24.019 24.019 0 006.635 2.767.855.855 0 01.642.715l.563 3.853a.84.84 0 00.279.507c.15.13.34.202.537.203h7.279a.826.826 0 00.537-.203.84.84 0 00.279-.507l.563-3.853a.868.868 0 01.643-.715 24.019 24.019 0 006.634-2.767.85.85 0 01.953.048l3.074 2.316a.823.823 0 001.075-.078l5.156-5.208a.842.842 0 00.078-1.086l-2.293-3.105a.87.87 0 01-.043-.962 24.531 24.531 0 002.74-6.7.866.866 0 01.706-.65l3.815-.568a.827.827 0 00.502-.282.843.843 0 00.2-.543v-7.35a.844.844 0 00-.201-.544.829.829 0 00-.503-.281l-3.814-.57a.853.853 0 01-.707-.648 24.572 24.572 0 00-2.74-6.702.871.871 0 01.048-.96l2.293-3.105a.844.844 0 00-.078-1.087l-5.155-5.207a.826.826 0 00-1.076-.079l-3.074 2.316a.852.852 0 01-.952.049 24.024 24.024 0 00-6.635-2.768.855.855 0 01-.642-.714l-.569-3.856a.84.84 0 00-.277-.506.825.825 0 00-.535-.205h-7.279a.825.825 0 00-.538.204.84.84 0 00-.278.507l-.563 3.852a.868.868 0 01-.643.715 24.022 24.022 0 00-6.634 2.767.849.849 0 01-.953-.048L15.362 9.14a.824.824 0 00-1.075.079L9.13 14.426a.842.842 0 00-.078 1.086l2.293 3.105a.87.87 0 01.048.96 24.57 24.57 0 00-2.74 6.703.852.852 0 01-.706.649l-3.819.574a.828.828 0 00-.5.28.844.844 0 00-.204.54v7.352c.001.2.073.392.202.543.128.15.306.25.502.281l3.815.57a.853.853 0 01.707.648 24.531 24.531 0 002.74 6.7.871.871 0 01-.048.962L9.05 48.484a.844.844 0 00.078 1.087l5.155 5.207a.825.825 0 001.076.079l3.074-2.316a.851.851 0 01.514-.17z" fill="#F2A83D"/><path d="M42.018 18.586a.851.851 0 01-.52-.173 15.58 15.58 0 00-2.054-1.345.858.858 0 01-.414-.513.873.873 0 01.28-.919.853.853 0 01.947-.09c.798.436 1.56.935 2.28 1.492a.865.865 0 01.292.965.864.864 0 01-.811.587v-.004zM31.683 50.69a17.57 17.57 0 01-5.722-.952 18.465 18.465 0 01-9.026-6.854A18.76 18.76 0 0113.555 32a18.97 18.97 0 012.796-9.938 18.71 18.71 0 017.565-6.952.851.851 0 011.145.4.871.871 0 01-.397 1.157 16.982 16.982 0 00-6.863 6.313A17.216 17.216 0 0015.268 32a17.02 17.02 0 003.06 9.874 16.753 16.753 0 008.184 6.224 16.007 16.007 0 0010.341 0 16.752 16.752 0 008.185-6.223A17.02 17.02 0 0048.098 32a17.315 17.315 0 00-2.404-8.835.872.872 0 01.294-1.187.849.849 0 011.175.297A19.06 19.06 0 0149.811 32a18.76 18.76 0 01-3.38 10.882 18.466 18.466 0 01-9.027 6.854 17.564 17.564 0 01-5.72.954zM34.16 15.23a.827.827 0 01-.137-.011 14.817 14.817 0 00-2.34-.179.86.86 0 01-.641-.152.875.875 0 01-.205-1.208.855.855 0 01.554-.35c.097-.014.195-.02.292-.02.874-.002 1.747.065 2.61.202a.854.854 0 01.536.32.87.87 0 01-.09 1.167.852.852 0 01-.58.231z" fill="#F2A83D"/><path d="M37.13 49.782a.852.852 0 01-.606-.254.87.87 0 01-.251-.611V36.099h-9.18v12.818c0 .23-.09.45-.25.611a.852.852 0 01-1.211 0 .87.87 0 01-.251-.611V35.234c0-.229.09-.449.25-.611a.852.852 0 01.606-.253H37.13c.227 0 .445.09.606.253a.87.87 0 01.25.611v13.683c0 .23-.09.45-.25.611a.852.852 0 01-.606.254z" fill="#F2A83D"/><path d="M37.127 36.098H26.24a.85.85 0 01-.736-.423.87.87 0 01-.017-.854L30.93 24.67a.894.894 0 01.753-.418.883.883 0 01.753.418l5.444 10.152a.872.872 0 01-.33 1.164.85.85 0 01-.422.113zm-9.45-1.73h8.013l-4.007-7.47-4.006 7.47z" fill="#F2A83D"/><path d="M31.683 50.69a.852.852 0 01-.605-.254.87.87 0 01-.251-.611v-14.59c0-.23.09-.45.25-.612a.852.852 0 011.211 0 .87.87 0 01.251.611v14.59c0 .23-.09.45-.25.612a.852.852 0 01-.606.254z" fill="#F2A83D"/></svg><svg viewBox="0 0 64 64" id="ceo" xmlns="http://www.w3.org/2000/svg"><path d="M35.677 62.27h-7.351a2.575 2.575 0 01-2.534-2.188l-.486-3.286a26.179 26.179 0 01-6.109-2.527l-2.646 1.975A2.576 2.576 0 0113.207 56l-5.206-5.206a2.574 2.574 0 01-.243-3.343l1.973-2.647a26.214 26.214 0 01-2.525-6.108l-3.287-.486a2.577 2.577 0 01-2.19-2.534v-7.35a2.577 2.577 0 012.188-2.536l3.286-.486a26.214 26.214 0 012.526-6.108l-1.973-2.647a2.576 2.576 0 01.242-3.343l5.207-5.207a2.575 2.575 0 013.343-.242l2.647 1.974a26.178 26.178 0 016.108-2.527l.486-3.286a2.576 2.576 0 012.533-2.188h7.352a2.576 2.576 0 012.534 2.188l.486 3.286c2.135.58 4.187 1.43 6.108 2.527l2.647-1.974a2.574 2.574 0 013.343.242l5.207 5.207a2.574 2.574 0 01.242 3.343l-1.973 2.647a26.214 26.214 0 012.526 6.108l3.286.486a2.577 2.577 0 012.19 2.533v7.352a2.577 2.577 0 01-2.188 2.535l-3.287.486a26.21 26.21 0 01-2.525 6.108l1.973 2.647A2.575 2.575 0 0156 50.794l-5.208 5.207a2.574 2.574 0 01-3.342.243l-2.647-1.975a26.18 26.18 0 01-6.108 2.527l-.486 3.286a2.576 2.576 0 01-2.533 2.188zm-16.541-9.899c.156 0 .31.042.444.123a24.42 24.42 0 006.701 2.767.865.865 0 01.649.714l.57 3.853a.835.835 0 00.822.71h7.352a.836.836 0 00.822-.71l.57-3.853a.866.866 0 01.649-.714 24.422 24.422 0 006.7-2.767.864.864 0 01.962.048l3.105 2.316a.837.837 0 001.086-.078l5.208-5.208a.835.835 0 00.079-1.085l-2.316-3.106a.865.865 0 01-.049-.96 24.438 24.438 0 002.768-6.702.865.865 0 01.713-.65l3.853-.568a.839.839 0 00.716-.825v-7.35a.829.829 0 00-.71-.825l-3.854-.57a.865.865 0 01-.713-.649 24.461 24.461 0 00-2.768-6.7.866.866 0 01.05-.962l2.315-3.104a.836.836 0 00-.079-1.087l-5.207-5.207a.837.837 0 00-1.087-.079l-3.104 2.316a.866.866 0 01-.962.049A24.416 24.416 0 0037.72 8.74a.865.865 0 01-.649-.713l-.574-3.857a.836.836 0 00-.82-.71h-7.351a.835.835 0 00-.823.71l-.57 3.853a.865.865 0 01-.648.714 24.419 24.419 0 00-6.701 2.767.865.865 0 01-.962-.048L15.517 9.14a.837.837 0 00-1.086.079l-5.207 5.207a.835.835 0 00-.08 1.085l2.316 3.106a.866.866 0 01.05.96 24.46 24.46 0 00-2.768 6.702.865.865 0 01-.714.65l-3.858.574a.828.828 0 00-.71.82v7.352a.84.84 0 00.71.824l3.853.57a.865.865 0 01.714.649 24.442 24.442 0 002.767 6.7.864.864 0 01-.05.961L9.14 48.484a.836.836 0 00.078 1.087l5.208 5.207a.837.837 0 001.086.079l3.105-2.316a.865.865 0 01.519-.17z" fill="#F2A83D"/><path d="M27.304 15.706a.865.865 0 01-.187-1.71c.85-.25 1.72-.428 2.6-.533a.865.865 0 01.207 1.718c-.803.095-1.597.259-2.373.49a.88.88 0 01-.247.035zM32 50.69A18.524 18.524 0 0113.69 32c-.001-1.94.296-3.869.88-5.718a.864.864 0 111.649.518 17.21 17.21 0 00-.799 5.2A16.792 16.792 0 0032 48.96 16.792 16.792 0 0048.58 32 16.841 16.841 0 0036 15.542a.864.864 0 01-.482-1.356.865.865 0 01.906-.322A18.57 18.57 0 0150.309 32 18.524 18.524 0 0132 50.69zM19.675 20.255a.865.865 0 01-.62-1.47c.683-.7 1.422-1.342 2.21-1.92a.865.865 0 111.023 1.396 15.83 15.83 0 00-1.989 1.73.865.865 0 01-.624.264z" fill="#F2A83D"/><path d="M28.54 38.054a.865.865 0 01-.61-.253l-3.46-3.46a.865.865 0 011.223-1.223l2.848 2.848 9.767-9.767a.865.865 0 011.223 1.223L29.152 37.801a.865.865 0 01-.611.253z" fill="#F2A83D"/></svg><svg fill="none" viewBox="0 0 20 20" id="close" xmlns="http://www.w3.org/2000/svg"><path d="M11.633 9.945l8.1-8.1A1.11 1.11 0 0018.166.278l-8.1 8.1-8.1-8.11A1.111 1.111 0 00.4 1.833l8.1 8.11-8.11 8.101a1.11 1.11 0 101.566 1.567l8.111-8.1 8.1 8.1a1.111 1.111 0 001.567-1.567l-8.1-8.1z" fill="#fff"/></svg><svg viewBox="0 0 64 64" id="consalting" xmlns="http://www.w3.org/2000/svg"><path d="M53.241 40.164a.865.865 0 01-.795-1.205c.33-.778.639-1.597.916-2.445a.866.866 0 011.644.537c-.293.896-.62 1.767-.97 2.588a.866.866 0 01-.795.525z" fill="#F2A83D"/><path d="M32 62.27a.865.865 0 01-.422-.11C16.226 53.565 7.42 40.835 7.42 27.235V8.285a.865.865 0 01.974-.858 32.26 32.26 0 0023.114-5.543.865.865 0 01.987 0c6.39 4.46 13.961 6.27 23.15 5.535a.852.852 0 01.657.226.864.864 0 01.277.636v13.825a.865.865 0 01-1.73 0V9.214C45.893 9.773 38.405 7.946 32 3.642A33.8 33.8 0 019.15 9.254v17.98c0 12.832 8.32 24.903 22.85 33.178A51.035 51.035 0 0048.778 45.63l.204-.297c.102-.147.202-.293.297-.443a.865.865 0 111.46.927c-.106.167-.219.331-.333.496l-.196.29c-4.152 5.991-10.3 11.366-17.785 15.557a.864.864 0 01-.425.11z" fill="#F2A83D"/><path d="M55.508 31.593a.87.87 0 01-.86-.969c.097-.795.159-1.633.184-2.49a.894.894 0 01.892-.838.865.865 0 01.838.89 29.738 29.738 0 01-.196 2.646.865.865 0 01-.858.761zM27.923 37.93a.865.865 0 01-.611-.253l-5.437-5.437a.865.865 0 011.223-1.223l4.825 4.826 12.98-12.98a.865.865 0 011.222 1.224l-13.59 13.59a.865.865 0 01-.612.253z" fill="#F2A83D"/></svg><svg viewBox="0 0 64 64" id="context" xmlns="http://www.w3.org/2000/svg"><path d="M35.677 62.27h-7.351a2.575 2.575 0 01-2.534-2.188l-.486-3.286a26.179 26.179 0 01-6.109-2.527l-2.646 1.975A2.577 2.577 0 0113.208 56l-5.21-5.206a2.574 2.574 0 01-.243-3.343l1.973-2.646a26.211 26.211 0 01-2.526-6.108l-3.286-.487a2.577 2.577 0 01-2.187-2.535v-7.35a2.577 2.577 0 012.188-2.536l3.286-.486a26.214 26.214 0 012.526-6.108l-1.973-2.647a2.576 2.576 0 01.242-3.343l5.207-5.207a2.574 2.574 0 013.343-.242l2.647 1.974a26.178 26.178 0 016.108-2.527l.486-3.286a2.576 2.576 0 012.533-2.188h7.352a2.578 2.578 0 012.535 2.187l.485 3.286c2.135.581 4.187 1.43 6.108 2.527l2.647-1.974a2.574 2.574 0 013.343.242l5.207 5.208a2.574 2.574 0 01.242 3.342l-1.973 2.647a26.212 26.212 0 012.526 6.108l3.286.486a2.578 2.578 0 012.19 2.534v7.352a2.577 2.577 0 01-2.188 2.535l-3.287.486a26.21 26.21 0 01-2.525 6.108l1.973 2.647A2.575 2.575 0 0156 50.794l-5.208 5.207a2.574 2.574 0 01-3.342.243l-2.647-1.975a26.18 26.18 0 01-6.108 2.527l-.486 3.286a2.579 2.579 0 01-2.533 2.188zm-16.541-9.899c.156 0 .31.042.444.123a24.42 24.42 0 006.701 2.767.865.865 0 01.649.714l.57 3.853a.835.835 0 00.822.71h7.352a.837.837 0 00.823-.71l.57-3.852a.864.864 0 01.648-.715 24.422 24.422 0 006.7-2.767.864.864 0 01.962.048l3.105 2.316a.837.837 0 001.086-.078l5.208-5.208a.835.835 0 00.079-1.085l-2.316-3.106a.865.865 0 01-.049-.96 24.438 24.438 0 002.768-6.702.865.865 0 01.713-.65l3.853-.568a.839.839 0 00.716-.825v-7.35a.839.839 0 00-.71-.825l-3.854-.57a.865.865 0 01-.713-.649 24.461 24.461 0 00-2.768-6.7.866.866 0 01.05-.962l2.315-3.104a.836.836 0 00-.079-1.087l-5.207-5.207a.837.837 0 00-1.087-.079l-3.104 2.316a.866.866 0 01-.962.049A24.416 24.416 0 0037.72 8.74a.865.865 0 01-.649-.714l-.574-3.857a.837.837 0 00-.82-.71h-7.351a.835.835 0 00-.823.71l-.57 3.854a.865.865 0 01-.648.714 24.419 24.419 0 00-6.701 2.767.865.865 0 01-.962-.048L15.517 9.14a.836.836 0 00-1.086.08l-5.207 5.206a.835.835 0 00-.08 1.085l2.316 3.106a.866.866 0 01.05.96 24.46 24.46 0 00-2.768 6.702.865.865 0 01-.714.65l-3.858.574a.828.828 0 00-.71.82v7.352a.84.84 0 00.71.824l3.853.57a.865.865 0 01.714.649 24.442 24.442 0 002.767 6.7.864.864 0 01-.05.961L9.14 48.484a.836.836 0 00.078 1.087l5.208 5.207a.839.839 0 001.086.079l3.105-2.316a.865.865 0 01.519-.17z" fill="#F2A83D"/><path d="M38.158 49.54a.865.865 0 01-.307-1.674c.751-.285 1.479-.63 2.176-1.031a.866.866 0 01.864 1.5c-.775.446-1.585.83-2.421 1.147a.865.865 0 01-.312.057zM31.49 50.672h-.025A18.403 18.403 0 0113.691 32 18.524 18.524 0 0132 13.31 18.523 18.523 0 0150.309 32a19.58 19.58 0 01-.208 2.824.865.865 0 01-1.711-.251A17.74 17.74 0 0048.58 32 16.792 16.792 0 0032 15.04 16.792 16.792 0 0015.42 32a16.684 16.684 0 0016.094 16.943.865.865 0 01-.024 1.73zM45.137 44.584a.866.866 0 01-.655-1.43 15.611 15.611 0 001.508-2.076.864.864 0 111.478.898 17.331 17.331 0 01-1.675 2.305.864.864 0 01-.656.303z" fill="#F2A83D"/><path d="M32 44.828a.864.864 0 01-.635-.277c-.345-.373-8.433-9.218-8.433-16.311a9.068 9.068 0 0118.136 0c0 7.091-8.088 15.938-8.433 16.31a.865.865 0 01-.635.279zm0-23.927a7.346 7.346 0 00-7.338 7.339c0 5.337 5.448 12.194 7.338 14.412 1.89-2.219 7.339-9.081 7.339-14.412A7.346 7.346 0 0032 20.9z" fill="#F2A83D"/><path d="M32 33a4.892 4.892 0 110-9.784A4.892 4.892 0 0132 33zm0-8.054a3.162 3.162 0 100 6.325 3.162 3.162 0 000-6.325z" fill="#F2A83D"/></svg><svg viewBox="0 0 64 64" id="create" xmlns="http://www.w3.org/2000/svg"><path d="M12.487 43.252H9.783a.865.865 0 110-1.73h2.704a.865.865 0 110 1.73z" fill="#F2A83D"/><path d="M58.81 48.432H5.19a3.46 3.46 0 01-3.46-3.459V6.928a3.46 3.46 0 013.46-3.46H58.81a3.46 3.46 0 013.459 3.46v38.045a3.46 3.46 0 01-3.46 3.46zM5.19 5.198a1.73 1.73 0 00-1.73 1.73v38.045a1.73 1.73 0 001.73 1.73H58.81a1.73 1.73 0 001.73-1.73V6.928a1.73 1.73 0 00-1.73-1.73H5.189z" fill="#F2A83D"/><path d="M40.648 38.063H38.08a.865.865 0 110-1.73h2.568a.865.865 0 010 1.73zM23.463 38.063H2.595a.865.865 0 110-1.73h20.87a.865.865 0 110 1.73zM32.026 38.063h-2.508a.865.865 0 110-1.73h2.508a.865.865 0 110 1.73zM61.406 38.063H46.703a.865.865 0 110-1.73h14.703a.865.865 0 010 1.73zM24.247 15.98l-2.412 8.707h-1.104l-2.09-7.563-2.098 7.567H15.44l-2.406-8.712h1.21l1.742 7.092 1.96-7.092h1.383l1.96 7.092 1.74-7.092h1.22z" fill="#F2A83D"/><path d="M21.918 24.795h-1.269l-2.008-7.27-2.015 7.27h-1.27l-2.465-8.924h1.438l1.662 6.772 1.872-6.772h1.548l1.872 6.772 1.662-6.772h1.445l-2.472 8.924zm-1.106-.216h.941l2.353-8.492h-.991L21.299 23.5l-2.051-7.412h-1.22l-2.048 7.411-1.817-7.412h-.986l2.346 8.492h.94l2.18-7.864 2.17 7.865zM37.607 15.98L35.2 24.686h-1.11L32 17.124l-2.096 7.567H28.8l-2.407-8.712h1.21l1.741 7.092 1.96-7.092h1.384l1.96 7.092 1.74-7.092h1.219z" fill="#F2A83D"/><path d="M35.278 24.795h-1.27L32 17.525l-2.015 7.27h-1.272l-2.465-8.924h1.439l1.661 6.772 1.873-6.772h1.548l1.872 6.772 1.662-6.772h1.443l-2.468 8.924zm-1.106-.216h.941l2.352-8.492h-.991l-1.816 7.411-2.053-7.412h-1.218l-2.048 7.412-1.816-7.412h-.988l2.345 8.492h.94L32 16.714l2.172 7.865zM50.968 15.98l-2.413 8.707h-1.104l-2.091-7.563-2.097 7.567H42.16l-2.406-8.712h1.21l1.742 7.092 1.96-7.092h1.383l1.96 7.092 1.741-7.092h1.219z" fill="#F2A83D"/><path d="M48.637 24.795H47.37l-2.01-7.27-2.015 7.27h-1.268L39.61 15.87h1.438l1.662 6.772 1.872-6.772h1.548l1.873 6.772 1.66-6.772h1.45l-2.477 8.924zm-1.104-.216h.941l2.352-8.492h-.992l-1.817 7.411-2.05-7.412h-1.22l-2.048 7.412-1.816-7.412h-.986l2.346 8.492h.941l2.178-7.864 2.171 7.865zM45.97 60.55H18.03a.865.865 0 01-.715-1.354l.142-.206a20.09 20.09 0 003.544-11.422.865.865 0 01.865-.865h20.267a.865.865 0 01.865.865 20.091 20.091 0 003.546 11.421l.143.207a.866.866 0 01-.714 1.353h-.003zm-26.348-1.73h24.756a21.795 21.795 0 01-3.093-10.388h-18.57a21.787 21.787 0 01-3.093 10.387z" fill="#F2A83D"/></svg><svg fill="none" viewBox="0 0 24 24" id="instagram" xmlns="http://www.w3.org/2000/svg"><path d="M12 0C8.74 0 8.333.015 7.053.072 5.775.132 4.905.333 4.14.63a5.876 5.876 0 00-2.126 1.384A5.855 5.855 0 00.63 4.14C.333 4.905.131 5.775.072 7.053.012 8.333 0 8.74 0 12s.015 3.667.072 4.947c.06 1.277.261 2.148.558 2.913a5.885 5.885 0 001.384 2.126A5.868 5.868 0 004.14 23.37c.766.296 1.636.499 2.913.558C8.333 23.988 8.74 24 12 24s3.667-.015 4.947-.072c1.277-.06 2.148-.262 2.913-.558a5.898 5.898 0 002.126-1.384 5.86 5.86 0 001.384-2.126c.296-.765.499-1.636.558-2.913.06-1.28.072-1.687.072-4.947s-.015-3.667-.072-4.947c-.06-1.277-.262-2.149-.558-2.913a5.89 5.89 0 00-1.384-2.126A5.847 5.847 0 0019.86.63c-.765-.297-1.636-.499-2.913-.558C15.667.012 15.26 0 12 0zm0 2.16c3.203 0 3.585.016 4.85.071 1.17.055 1.805.249 2.227.415.562.217.96.477 1.382.896.419.42.679.819.896 1.381.164.422.36 1.057.413 2.227.057 1.266.07 1.646.07 4.85 0 3.204-.015 3.585-.074 4.85-.061 1.17-.256 1.805-.421 2.227a3.81 3.81 0 01-.899 1.382 3.744 3.744 0 01-1.38.896c-.42.164-1.065.36-2.235.413-1.274.057-1.649.07-4.859.07-3.211 0-3.586-.015-4.859-.074-1.171-.061-1.816-.256-2.236-.421a3.716 3.716 0 01-1.379-.899 3.644 3.644 0 01-.9-1.38c-.165-.42-.359-1.065-.42-2.235-.045-1.26-.061-1.649-.061-4.844 0-3.196.016-3.586.061-4.861.061-1.17.255-1.814.42-2.234.21-.57.479-.96.9-1.381.419-.419.81-.689 1.379-.898.42-.166 1.051-.361 2.221-.421 1.275-.045 1.65-.06 4.859-.06l.045.03zm0 3.678a6.162 6.162 0 100 12.324 6.162 6.162 0 100-12.324zM12 16c-2.21 0-4-1.79-4-4s1.79-4 4-4 4 1.79 4 4-1.79 4-4 4zm7.846-10.405a1.441 1.441 0 01-2.88 0 1.44 1.44 0 012.88 0z" fill="#fff"/></svg><svg viewBox="0 0 117 22" id="logo" xmlns="http://www.w3.org/2000/svg"><path d="M1 1h17L8 18h9v4H0L10 6H1zm32 21c-6.075 0-11-4.925-11-11 0-.666.07-1.315.183-1.949l5.726 5.09c1.057 1.71 2.933 2.859 5.09 2.859a6 6 0 100-12c-2.243 0-4.176 1.246-5.205 3.07l-3.822-3.345A10.98 10.98 0 0133 0c6.075 0 11 4.925 11 11s-4.925 11-11 11zm17 0V12l5 3v7zm0-22l14 11V0h5v22L50 6zm41 4H81v5h9v4h-9v5h10v4H76V0h15zm26 18h-6l-5-6.875L101 22h-6l8-11-8-11h6l5 6.875L111 0h6l-8 11z"/></svg><svg viewBox="0 0 64 64" id="perfomans" xmlns="http://www.w3.org/2000/svg"><path d="M61.406 21.554H2.595a.865.865 0 01-.785-1.23L8.037 6.896a.865.865 0 01.785-.496h46.356a.865.865 0 01.785.5L62.19 20.33a.865.865 0 01-.784 1.225zm-57.457-1.73h56.102L54.626 8.13H9.374L3.95 19.824z" fill="#F2A83D"/><path d="M46.703 21.554H17.297a.866.866 0 01-.826-1.124l4.2-13.425a.865.865 0 01.825-.605h21.005a.865.865 0 01.825.605l4.203 13.43a.865.865 0 01-.826 1.123v-.004zm-28.229-1.73h27.052L41.865 8.13h-19.73l-3.66 11.694z" fill="#F2A83D"/><path d="M32 57.6a.865.865 0 01-.8-.539L16.495 21.013a.865.865 0 01.801-1.189h29.406a.864.864 0 01.8 1.192L32.802 57.065A.865.865 0 0132 57.6zM18.584 21.554L32 54.45l13.416-32.895H18.584zM49.47 36.186a.865.865 0 01-.67-1.412l1.627-1.99a.866.866 0 111.339 1.095l-1.625 1.99a.865.865 0 01-.67.317z" fill="#F2A83D"/><path d="M32 57.6a.866.866 0 01-.67-.318L1.924 21.234a.865.865 0 01.67-1.411h58.811a.865.865 0 01.67 1.411l-6.477 7.94a.862.862 0 01-1.217.123.863.863 0 01-.124-1.217l5.327-6.528H4.416L32 55.367l7.537-9.245a.866.866 0 011.499.795.865.865 0 01-.158.298L32.67 57.282a.865.865 0 01-.67.318z" fill="#F2A83D"/><path d="M44.048 42.837a.864.864 0 01-.672-1.41l1.583-1.947a.865.865 0 011.342 1.092l-1.582 1.946a.865.865 0 01-.671.319z" fill="#F2A83D"/></svg><svg viewBox="0 0 64 64" id="smm" xmlns="http://www.w3.org/2000/svg"><path d="M56.199 33.996H43.27a.865.865 0 110-1.73h12.063v-3.405a4.78 4.78 0 00-4.77-4.78h-7.391c-.518 0-1.033.084-1.525.248a.865.865 0 01-.539-1.643 6.611 6.611 0 012.064-.335h7.39a6.512 6.512 0 016.5 6.51v4.27a.865.865 0 01-.864.865zM52.117 53.414a.864.864 0 01-.635-1.453 27.597 27.597 0 007.33-18.828.865.865 0 111.729 0 29.319 29.319 0 01-7.79 20.003.866.866 0 01-.634.278zM32 62.27c-15.74 0-28.54-13.07-28.54-29.137a.865.865 0 111.73 0C5.19 48.246 17.215 60.54 32 60.54a26.109 26.109 0 0011.07-2.436.865.865 0 11.728 1.572A27.817 27.817 0 0132 62.27zM47.318 57.548a.865.865 0 01-.487-1.58c.48-.327.95-.671 1.439-1.054a.866.866 0 011.3 1.103.864.864 0 01-.231.255c-.52.41-1.023.779-1.537 1.125a.865.865 0 01-.484.151z" fill="#F2A83D"/><path d="M32 62.27c-7.62 0-13.589-12.8-13.589-29.139a.865.865 0 011.73 0c0 14.858 5.43 27.41 11.859 27.41 6.428 0 11.859-12.552 11.859-27.41a.865.865 0 011.73 0c0 16.34-5.969 29.14-13.59 29.14z" fill="#F2A83D"/><path d="M59.676 33.996H4.324a.865.865 0 110-1.73h55.352a.865.865 0 110 1.73zM55.963 48.133H8.037a.865.865 0 110-1.73h47.926a.865.865 0 010 1.73z" fill="#F2A83D"/><path d="M32 62.27a.865.865 0 01-.865-.865V33.131a.865.865 0 011.73 0v28.274a.865.865 0 01-.865.865z" fill="#F2A83D"/><path d="M43.273 33.996H20.726a.865.865 0 01-.865-.865v-4.93a7.687 7.687 0 017.678-7.678h8.922a7.688 7.688 0 017.677 7.678v4.93a.865.865 0 01-.865.865zm-21.682-1.73h20.817v-4.064a5.956 5.956 0 00-5.947-5.949h-8.922a5.955 5.955 0 00-5.948 5.948v4.065z" fill="#F2A83D"/><path d="M20.729 33.996H7.8a.865.865 0 01-.865-.865v-4.27a6.512 6.512 0 016.5-6.51h7.39a6.611 6.611 0 012.064.335.865.865 0 01-.539 1.643 4.83 4.83 0 00-1.524-.249h-7.39a4.78 4.78 0 00-4.771 4.78v3.406h12.063a.865.865 0 110 1.73zM32 17.57c-3.962 0-7.153-4.757-7.153-8.687a7.153 7.153 0 1114.306 0c0 3.934-3.191 8.687-7.153 8.687zm0-14.11a5.43 5.43 0 00-5.424 5.423c0 3.067 2.554 6.957 5.424 6.957 2.87 0 5.423-3.892 5.423-6.957A5.43 5.43 0 0032 3.459zM46.868 20.012c-3.361 0-6.068-4.015-6.068-7.338a6.069 6.069 0 0112.137 0c0 3.326-2.707 7.338-6.07 7.338zm0-11.676a4.343 4.343 0 00-4.339 4.34c0 2.471 2.043 5.608 4.339 5.608 2.295 0 4.34-3.137 4.34-5.609a4.344 4.344 0 00-4.34-4.34v.001zM17.132 20.012c-3.363 0-6.07-4.015-6.07-7.338a6.068 6.068 0 0112.138 0c0 3.326-2.703 7.338-6.068 7.338zm0-11.676a4.344 4.344 0 00-4.34 4.34c0 2.471 2.043 5.608 4.34 5.608 2.297 0 4.338-3.137 4.338-5.609a4.344 4.344 0 00-4.338-4.34v.001z" fill="#F2A83D"/></svg><svg viewBox="0 0 64 64" id="spare" xmlns="http://www.w3.org/2000/svg"><path d="M55.697 50.724a.856.856 0 01-.62-1.45c.071-.07.074-.114.047-.147l-2.894-3.719a.864.864 0 011.365-1.062l2.888 3.71a1.8 1.8 0 01-.156 2.413.903.903 0 01-.63.255z" fill="#F2A83D"/><path d="M36.142 62.27h-8.285a1.825 1.825 0 01-1.81-1.596l-.583-4.59a25.521 25.521 0 01-5.881-2.433l-3.639 2.832a1.8 1.8 0 01-2.413-.156l-5.866-5.865a1.8 1.8 0 01-.14-2.412l2.826-3.632a25.523 25.523 0 01-2.433-5.881l-4.591-.584a1.821 1.821 0 01-1.598-1.802v-8.294a1.826 1.826 0 011.597-1.809l4.59-.584a25.523 25.523 0 012.433-5.88l-2.833-3.641a1.8 1.8 0 01.157-2.413l5.864-5.865a1.816 1.816 0 012.403-.151l3.641 2.835a25.523 25.523 0 015.881-2.433l.584-4.591a1.826 1.826 0 011.811-1.595h8.285a1.826 1.826 0 011.81 1.596l.584 4.59c2.054.562 4.03 1.38 5.88 2.433l3.64-2.832a1.816 1.816 0 012.412.156l5.865 5.865a1.8 1.8 0 01.143 2.412l-2.827 3.632a25.525 25.525 0 012.433 5.881l4.591.584a1.826 1.826 0 011.597 1.81v8.294a1.821 1.821 0 01-1.597 1.801l-4.59.584c-.252.933-.561 1.85-.926 2.744a.865.865 0 11-1.6-.657c.407-1.002.74-2.032.998-3.083a.865.865 0 01.73-.647l5.172-.657a.086.086 0 00.087-.086v-8.293a.089.089 0 00-.021-.064.086.086 0 00-.061-.03l-5.173-.656a.865.865 0 01-.731-.65 23.828 23.828 0 00-2.687-6.502.865.865 0 01.06-.975l3.19-4.1a.08.08 0 000-.112l-5.88-5.88a.092.092 0 00-.122-.006l-4.098 3.19a.865.865 0 01-.974.06 23.832 23.832 0 00-6.502-2.688.865.865 0 01-.65-.73l-.657-5.168a.085.085 0 00-.029-.065.087.087 0 00-.067-.022h-8.285a.086.086 0 00-.095.087l-.657 5.173a.864.864 0 01-.65.73 23.829 23.829 0 00-6.502 2.688.865.865 0 01-.975-.06l-4.1-3.191a.087.087 0 00-.111 0l-5.882 5.88a.08.08 0 00-.026.085c.003.01.008.02.014.028l3.2 4.107a.864.864 0 01.06.975 23.827 23.827 0 00-2.687 6.501.865.865 0 01-.731.65l-5.17.65a.087.087 0 00-.086.093v8.296a.087.087 0 00.082.087l5.173.657a.865.865 0 01.731.65 23.83 23.83 0 002.687 6.502.865.865 0 01-.06.974l-3.19 4.1a.08.08 0 000 .112l5.88 5.881a.078.078 0 00.054.03.078.078 0 00.059-.017l4.107-3.2a.865.865 0 01.974-.06 23.828 23.828 0 006.502 2.687.865.865 0 01.65.73l.657 5.173a.085.085 0 00.028.063.087.087 0 00.066.023h8.285a.088.088 0 00.064-.021.088.088 0 00.03-.061l.657-5.173a.865.865 0 01.65-.73 23.832 23.832 0 006.502-2.688.865.865 0 01.974.06l4.1 3.191a.082.082 0 00.112 0l3.166-3.157a.865.865 0 111.222 1.225l-3.156 3.148a1.799 1.799 0 01-2.412.143l-3.632-2.827a25.521 25.521 0 01-5.881 2.433l-.584 4.591a1.826 1.826 0 01-1.814 1.593z" fill="#F2A83D"/><path d="M32 49.874a17.877 17.877 0 010-35.748 17.877 17.877 0 010 35.748zm0-34.018A15.985 15.985 0 0016.217 32 15.986 15.986 0 0032 48.144 15.985 15.985 0 0047.783 32 15.985 15.985 0 0032 15.856z" fill="#F2A83D"/><path d="M45.89 42.24a.865.865 0 01-.727-.397 15.575 15.575 0 00-26.325 0 .864.864 0 01-1.454-.935 17.304 17.304 0 0129.232 0 .866.866 0 01-.726 1.333v-.001z" fill="#F2A83D"/><path d="M32 34.595a6.92 6.92 0 116.919-6.92A6.927 6.927 0 0132 34.596zm0-12.108a5.19 5.19 0 100 10.378 5.19 5.19 0 000-10.379z" fill="#F2A83D"/></svg><svg fill="none" viewBox="0 0 19 19" id="star" xmlns="http://www.w3.org/2000/svg"><path opacity=".5" d="M9.5 0l1.133 7.146 6.294-3.57-4.88 5.343 6.715 2.695-7.22-.485 2.08 6.93L9.5 12.112 5.378 18.06l2.08-6.93-7.22.485 6.715-2.695-4.88-5.342 6.293 3.57L9.5 0z" fill="#6F656E"/></svg><svg viewBox="0 0 64 64" id="target" xmlns="http://www.w3.org/2000/svg"><path d="M53.18 12.471a.865.865 0 01-.627-.27 26.66 26.66 0 00-1.86-1.767.864.864 0 011.135-1.304 27.804 27.804 0 011.98 1.881.864.864 0 01-.627 1.46zM32 62.27A30.272 30.272 0 015.814 16.843 30.27 30.27 0 0138.34 2.397a.866.866 0 01-.363 1.692 28.51 28.51 0 1018.459 13.146.866.866 0 011.48-.894A30.285 30.285 0 0132 62.27zM46.287 7.152a.865.865 0 01-.421-.11 27.24 27.24 0 00-2.181-1.09.865.865 0 01.709-1.577c.843.38 1.601.758 2.317 1.158a.865.865 0 01-.424 1.62z" fill="#F2A83D"/><path d="M30.523 47.315a.864.864 0 01-.804-.543L19.102 20.226a.865.865 0 011.124-1.125L46.772 29.72a.865.865 0 01-.048 1.625l-11.535 3.845-3.845 11.535a.865.865 0 01-.796.591h-.025zm-9.066-25.858l8.992 22.478 3.235-9.705a.864.864 0 01.547-.548l9.704-3.233-22.478-8.992z" fill="#F2A83D"/></svg><svg viewBox="0 0 8 61" id="topArrow" xmlns="http://www.w3.org/2000/svg"><path d="M4.354.646a.5.5 0 00-.708 0L.464 3.828a.5.5 0 00.708.708L4 1.707l2.828 2.829a.5.5 0 10.708-.708L4.354.646zM4.5 61V1h-1v60h1z" fill="#fff"/></svg><svg fill="none" viewBox="0 0 153 690" id="vector-line2" xmlns="http://www.w3.org/2000/svg"><path d="M.75 7.75C13.695 3.518 31.78-2.373 44.5 4.972c2.961 1.71 8.75 3.778 8.75 7.778 0 3.121-2.5 4.508-2.5 8.055 0 8.322 10.2 6.945 15.972 6.945 10.617 0 25.203-1.774 35.139 3.194 2.654 1.328-3.968 8.761-5.417 10.417-5.51 6.297 7.876 12.548 11.528 14.722 8.35 4.97 9.028 6.128 9.028 15.417 0 11.608 21.25 12.319 21.25 25.555 0 9.952.197 19.535 1.181 29.376 3.141 31.416-50.051 22.2-68.125 26.597-7.297 1.775-10.834 20.933-7.362 26.389 1.021 1.604 7.585 2.783 9.306 3.611 11.303 5.434-1.69 5.68-8.333 6.25-7.785.667-20.15-.751-27.153 2.361-3.975 1.766 2.317 14.155 3.264 15.486 11.866 16.687 29.663 15.486 46.805 20.486 17.699 5.162 35.01 10.414 52.986 14.514 4.382.999 12.212 4.014 11.112 10.069-1.449 7.967-11.702 10.743-11.181 17.778.358 4.834 6.945 5.301 8.542 9.028.872 2.035.461 6.746-.07 8.75-1.343 5.073-4.722 7.471-4.722 13.611 0 5.406-1.633 11.878-4.028 16.667-5.103 10.206-10.842 16.652-10.972 28.472-.182 16.524 8.992 28.044 17.222 41.667 5.187 8.584-22.494 4.583-25.555 4.583-22.066 0-44.194-.474-66.25.278-4.686.159-9.117.317-13.403 2.222-4.955 2.202 9.116 9.198 9.653 9.444 8.86 4.065 21.241 7.552 28.333 14.306 3.85 3.667 8.795 7.489 13.472 10.069 4.45 2.455 19.328 4.69 21.32 10 1.351 3.605 1.406 6.372 3.958 9.653 2.55 3.279 10.559 5.668 11.25 10.278 1.484 9.896 11.25 9.915 11.25 19.931 0 8.706 2.24 17.076 1.111 26.111-.792 6.335-6.354 13.841-10.555 18.402-6.888 7.478-14.663 8.02-23.473 12.639-4.278 2.244-6.762 6.576-10.833 8.611-2.88 1.44-8.964 2.885-9.861 6.25-.726 2.721-1.264 10.483.139 13.056.973 1.783 12.492 11.012 10.833 12.222-4.587 3.347-13.544 3.713-18.889 4.722-9.704 1.834-19.608 1.871-29.305 3.612-10.317 1.851 14.797 14.619 16.527 15.277 9.585 3.647 19.241 6.661 29.237 8.959 4.124.948 10.372 1.212 13.263 4.93 1.805 2.32 3.681 4.301 5.556 6.528 2.925 3.473-1.308 6.838-3.611 9.306-5.325 5.705 15.143 15.975 18.264 18.055 15.658 10.439.347 26.547.347 41.389" stroke="#fff" stroke-linecap="round"/></svg><svg version="1.1" id="vector-line22" x="0" y="0" viewBox="0 0 153 690" xml:space="preserve" xmlns="http://www.w3.org/2000/svg"><style>.rst0{fill:none;stroke:#fff;stroke-linecap:round}</style><path class="rst0" d="M.8 7.7C14 3 27 0 41 3c4 1 8 3 11 6 3 4 0 8-1 12-1 5 5 6 8 7 14 1 30-5 43 3 1 1 0 3-1 5-1 4-7 6-6 10 3 7 12 8 18 13 4 4 4 8 4 13 1 9 12 11 18 17 2 2 3 4 3 6 0 13 3 26 0 40 0 5-5 9-10 11-19 8-39 4-58 7-7 6-8 16-6 25 0 3 5 4 9 5 2 1 4 3 4 3-11 6-23 3-35 4-3 0-6 3-6 6 1 12 11 20 21 23 29 10 58 16 88 24 3 1 6 4 7 6 2 7-6 11-10 16-1 2-2 4-1 6 2 4 9 5 8 10-1 12-5 24-8 36-2 5-5 9-8 14-8 19 0 38 12 54 1 2 4 7 0 7-34 4-68-2-102 2-1 0-3 1-2 4l3 3c16 8 32 13 45 26 6 5 14 5 21 8 2 1 4 3 5 5 2 4 1 9 7 11 2 2 6 3 7 6 2 7 7 10 10 16 4 12 6 27 1 39-3 7-9 14-16 17-5 2-11 5-16 7-6 3-10 8-17 11-4 2-4 5-4.5 9.2"/></svg></svg>