<svg width="64" height="64" viewBox="0 0 64 64" xmlns="http://www.w3.org/2000/svg">
<path d="M35.3236 62.2703H28.045C27.4373 62.2674 26.8505 62.0455 26.3904 61.6445C25.9303 61.2435 25.627 60.6898 25.5352 60.083L25.0548 56.7965C22.9408 56.2164 20.9082 55.3675 19.0059 54.2703L16.3856 56.2447C15.8959 56.6098 15.293 56.786 14.6859 56.7414C14.0788 56.6968 13.5075 56.4345 13.0752 56.0017L7.92022 50.7944C7.49194 50.3577 7.23236 49.7808 7.18839 49.1678C7.14442 48.5548 7.31895 47.9461 7.68046 47.4517L9.63454 44.8052C8.54828 42.8841 7.70782 40.8315 7.13328 38.6966L3.87933 38.2106C3.27856 38.1181 2.73021 37.812 2.33304 37.3474C1.93586 36.8828 1.71595 36.2903 1.71289 35.6765V28.3252C1.71606 27.7115 1.93588 27.119 2.33284 26.6544C2.7298 26.1897 3.27786 25.8833 3.87848 25.7903L7.13243 25.3042C7.70728 23.1695 8.54773 21.1169 9.63368 19.1957L7.6796 16.5492C7.3181 16.0548 7.14357 15.4461 7.18754 14.8331C7.23151 14.22 7.49108 13.6431 7.91937 13.2065L13.0752 7.99913C13.5076 7.56672 14.0788 7.30466 14.6857 7.26025C15.2926 7.21585 15.8952 7.39202 16.3848 7.75697L19.0051 9.73059C20.9074 8.63332 22.9399 7.78444 25.054 7.20432L25.5344 3.91783C25.6259 3.31105 25.929 2.75722 26.389 2.35607C26.8489 1.95492 27.4356 1.73281 28.0433 1.72972H35.3219C35.9296 1.73257 36.5164 1.95447 36.9765 2.35546C37.4366 2.75646 37.7399 3.31019 37.8317 3.91697L38.3121 7.20345C40.4261 7.78358 42.4587 8.63245 44.361 9.72972L46.9813 7.7561C47.4709 7.39115 48.0735 7.21498 48.6804 7.25939C49.2873 7.3038 49.8585 7.56585 50.2909 7.99826L55.4467 13.2056C55.875 13.6422 56.1345 14.2192 56.1785 14.8322C56.2225 15.4452 56.048 16.0539 55.6865 16.5483L53.7324 19.1948C54.8183 21.1161 55.6588 23.1686 56.2336 25.3033L59.4876 25.7894C60.0882 25.8822 60.6364 26.1884 61.0335 26.6529C61.4306 27.1174 61.6506 27.7098 61.654 28.3235V35.6748C61.6512 36.2886 61.4315 36.8812 61.0345 37.346C60.6375 37.8107 60.0892 38.117 59.4884 38.2097L56.2345 38.6958C55.66 40.8306 54.8195 42.8832 53.7332 44.8043L55.6873 47.4508C56.0488 47.9452 56.2233 48.5539 56.1794 49.1669C56.1354 49.7799 55.8758 50.3569 55.4475 50.7935L50.2918 56.0009C49.8596 56.4337 49.2885 56.6961 48.6815 56.7407C48.0745 56.7853 47.4717 56.6091 46.9821 56.2439L44.3619 54.2694C42.4595 55.3667 40.427 56.2155 38.3129 56.7957L37.8326 60.0821C37.741 60.6889 37.4379 61.2428 36.9779 61.6439C36.518 62.0451 35.9313 62.2672 35.3236 62.2703ZM18.9468 52.371C19.1018 52.371 19.254 52.4134 19.387 52.4938C21.4497 53.745 23.6859 54.6778 26.0216 55.2614C26.1868 55.3025 26.3361 55.3925 26.4505 55.5197C26.5649 55.647 26.6392 55.8057 26.6638 55.9758L27.2273 59.8287C27.2574 60.0258 27.3561 60.2055 27.5057 60.3357C27.6553 60.4658 27.8459 60.5378 28.0433 60.5388H35.3219C35.5193 60.5378 35.7099 60.4658 35.8595 60.3357C36.0091 60.2055 36.1078 60.0258 36.1379 59.8287L36.7014 55.9758C36.726 55.8057 36.8003 55.647 36.9147 55.5197C37.0291 55.3925 37.1784 55.3025 37.3436 55.2614C39.6793 54.6778 41.9155 53.745 43.9782 52.4938C44.1238 52.4057 44.2921 52.3632 44.4616 52.3718C44.6312 52.3804 44.7944 52.4398 44.9305 52.5423L48.0046 54.8584C48.1637 54.977 48.3595 55.0342 48.5567 55.0198C48.754 55.0054 48.9396 54.9202 49.0801 54.7797L54.2359 49.5723C54.3749 49.4303 54.4591 49.2429 54.4734 49.0437C54.4877 48.8446 54.4311 48.6468 54.3138 48.486L52.0206 45.3812C51.9199 45.2432 51.8621 45.0781 51.8545 44.9069C51.8469 44.7357 51.8898 44.566 51.9778 44.4194C53.2166 42.3361 54.1401 40.0775 54.718 37.7185C54.7587 37.5517 54.8476 37.401 54.9734 37.2855C55.0992 37.17 55.2562 37.0949 55.4244 37.0698L59.2393 36.5007C59.4342 36.4701 59.612 36.3703 59.7406 36.2193C59.8693 36.0682 59.9405 35.8758 59.9414 35.6765V28.3252C59.9403 28.1257 59.8688 27.9332 59.7398 27.7821C59.6108 27.6311 59.4327 27.5314 59.2375 27.501L55.4227 26.9319C55.2545 26.9068 55.0975 26.8317 54.9717 26.7162C54.8459 26.6007 54.757 26.45 54.7163 26.2832C54.138 23.9241 53.2144 21.6653 51.9761 19.5814C51.889 19.4344 51.847 19.2647 51.8556 19.0936C51.8641 18.9225 51.9228 18.7579 52.0241 18.6205L54.3172 15.5157C54.4345 15.3549 54.4911 15.1572 54.4768 14.958C54.4625 14.7589 54.3783 14.5714 54.2393 14.4294L49.0835 9.22205C48.9429 9.08167 48.7573 8.99661 48.5601 8.98218C48.363 8.96776 48.1672 9.02491 48.008 9.14334L44.9339 11.4595C44.7978 11.5619 44.6346 11.6213 44.4651 11.6299C44.2955 11.6385 44.1273 11.5961 43.9817 11.5079C41.9189 10.2568 39.6827 9.32393 37.347 8.74032C37.1818 8.69917 37.0325 8.60923 36.9181 8.482C36.8037 8.35476 36.7295 8.19599 36.7048 8.02594L36.1362 4.16951C36.1062 3.97304 36.0079 3.79375 35.8591 3.66368C35.7102 3.53361 35.5204 3.46123 35.3236 3.45945H28.045C27.8476 3.46041 27.657 3.53242 27.5074 3.66257C27.3579 3.79271 27.2591 3.97245 27.229 4.16951L26.6655 8.02248C26.6409 8.19253 26.5666 8.3513 26.4522 8.47854C26.3378 8.60577 26.1885 8.69571 26.0233 8.73686C23.6876 9.32047 21.4514 10.2533 19.3887 11.5044C19.2431 11.5926 19.0748 11.6351 18.9053 11.6264C18.7357 11.6178 18.5726 11.5585 18.4365 11.456L15.3623 9.13989C15.2032 9.02145 15.0074 8.9643 14.8102 8.97873C14.613 8.99315 14.4274 9.07822 14.2868 9.21859L9.13103 14.4259C8.99205 14.5679 8.90783 14.7554 8.89355 14.9545C8.87926 15.1537 8.93584 15.3515 9.05311 15.5122L11.3463 18.6171C11.4476 18.7544 11.5062 18.9191 11.5148 19.0901C11.5233 19.2612 11.4813 19.431 11.3942 19.5779C10.1559 21.6618 9.23237 23.9206 8.65407 26.2798C8.61339 26.4465 8.52447 26.5972 8.39866 26.7128C8.27285 26.8283 8.11583 26.9034 7.94762 26.9284L4.12937 27.5027C3.93476 27.533 3.75715 27.6322 3.62823 27.7825C3.4993 27.9329 3.42745 28.1246 3.42549 28.3235V35.6748C3.42644 35.8742 3.49774 36.0667 3.6266 36.2178C3.75545 36.3689 3.93341 36.4686 4.12852 36.499L7.9442 37.0681C8.11241 37.0932 8.26942 37.1682 8.39524 37.2838C8.52105 37.3993 8.60996 37.55 8.65065 37.7167C9.22848 40.0758 10.1521 42.3344 11.3908 44.4177C11.4781 44.5648 11.5202 44.7347 11.5116 44.9059C11.5031 45.0772 11.4443 45.242 11.3429 45.3794L9.04969 48.4843C8.93242 48.6451 8.87583 48.8428 8.89012 49.042C8.90441 49.2411 8.98863 49.4286 9.12761 49.5706L14.2834 54.7779C14.4239 54.9185 14.6095 55.0036 14.8068 55.0181C15.004 55.0325 15.1998 54.9752 15.3589 54.8566L18.433 52.5405C18.5817 52.4295 18.7619 52.37 18.9468 52.371Z" fill="#F2A83D"/>
<path d="M42.0178 18.586C41.8307 18.5871 41.6485 18.5263 41.4988 18.413C40.8497 17.911 40.1626 17.4613 39.4437 17.0681C39.3448 17.0142 39.2573 16.9411 39.1863 16.853C39.1153 16.7649 39.0622 16.6635 39.03 16.5547C38.9978 16.4459 38.9871 16.3317 38.9986 16.2187C39.0101 16.1058 39.0435 15.9962 39.0969 15.8962C39.1503 15.7963 39.2227 15.7079 39.3099 15.6362C39.3971 15.5645 39.4975 15.5109 39.6052 15.4784C39.713 15.4459 39.826 15.4351 39.9379 15.4467C40.0497 15.4583 40.1582 15.492 40.2572 15.546C41.0548 15.9823 41.8172 16.4811 42.5375 17.0378C42.6799 17.1476 42.7847 17.2997 42.837 17.4728C42.8894 17.6458 42.8867 17.8311 42.8293 18.0025C42.7719 18.1739 42.6627 18.3228 42.5171 18.4282C42.3716 18.5337 42.1969 18.5903 42.0178 18.5903V18.586Z" fill="#F2A83D"/>
<path d="M31.6831 50.6897C29.737 50.6919 27.8039 50.3705 25.9613 49.7384C22.3168 48.4628 19.1599 46.0656 16.9346 42.8837C14.7092 39.7019 13.5273 35.8955 13.5552 32C13.5514 28.489 14.5196 25.0469 16.3505 22.0623C18.1813 19.0777 20.802 16.6697 23.9164 15.11C24.0176 15.0605 24.1275 15.0315 24.2398 15.0248C24.3521 15.0181 24.4646 15.0339 24.5708 15.0711C24.6771 15.1083 24.7751 15.1663 24.8592 15.2418C24.9432 15.3172 25.0118 15.4087 25.0609 15.5109C25.11 15.6131 25.1386 15.7241 25.1452 15.8375C25.1519 15.9509 25.1363 16.0645 25.0994 16.1719C25.0626 16.2792 25.0052 16.3782 24.9304 16.4631C24.8557 16.548 24.7652 16.6172 24.664 16.6668C21.8382 18.0837 19.4609 20.2704 17.8006 22.9798C16.1402 25.6893 15.2629 28.8136 15.2678 32C15.2408 35.5336 16.3109 38.9869 18.3278 41.8744C20.3447 44.7619 23.2068 46.9383 26.5119 48.0977C29.866 49.2419 33.4993 49.2419 36.8534 48.0977C40.1587 46.9386 43.0211 44.7622 45.0382 41.8747C47.0552 38.9872 48.1255 35.5337 48.0984 32C48.1034 28.8893 47.2724 25.8356 45.6939 23.1645C45.5772 22.9677 45.5426 22.7321 45.5979 22.5096C45.6531 22.2871 45.7936 22.0958 45.9885 21.9779C46.1833 21.86 46.4166 21.8251 46.6369 21.8809C46.8572 21.9367 47.0466 22.0786 47.1633 22.2754C48.901 25.2152 49.8161 28.5762 49.811 32C49.8382 35.8952 48.656 39.701 46.4305 42.8824C44.205 46.0637 41.0482 48.4605 37.404 49.7358C35.5618 50.3688 33.629 50.6911 31.6831 50.6897Z" fill="#F2A83D"/>
<path d="M34.1597 15.2303C34.1138 15.2303 34.0679 15.2266 34.0227 15.219C33.2487 15.0976 32.4665 15.0377 31.6832 15.04C31.458 15.0766 31.2276 15.0218 31.042 14.8877C30.8565 14.7536 30.7309 14.551 30.6925 14.3239C30.6735 14.2123 30.6765 14.0979 30.7014 13.9875C30.7262 13.8771 30.7724 13.7727 30.8374 13.6803C30.9023 13.588 30.9847 13.5095 31.0797 13.4494C31.1748 13.3893 31.2806 13.3488 31.3912 13.3301C31.4879 13.3158 31.5855 13.3091 31.6832 13.3103C32.5572 13.3077 33.4299 13.3751 34.2933 13.5118C34.5053 13.5466 34.6966 13.6607 34.8292 13.8314C34.9619 14.002 35.0262 14.2168 35.0094 14.4331C34.9925 14.6494 34.8959 14.8514 34.7385 14.9991C34.5811 15.1467 34.3745 15.2292 34.1597 15.2303Z" fill="#F2A83D"/>
<path d="M37.1293 49.7816C36.9022 49.7816 36.6844 49.6905 36.5238 49.5283C36.3632 49.3661 36.273 49.1461 36.273 48.9167V36.0994H27.0935V48.9167C27.0935 49.1461 27.0032 49.3661 26.8427 49.5283C26.6821 49.6905 26.4643 49.7816 26.2372 49.7816C26.0101 49.7816 25.7923 49.6905 25.6317 49.5283C25.4711 49.3661 25.3809 49.1461 25.3809 48.9167V35.2345C25.3809 35.0052 25.4711 34.7852 25.6317 34.623C25.7923 34.4608 26.0101 34.3697 26.2372 34.3697H37.1293C37.3564 34.3697 37.5742 34.4608 37.7348 34.623C37.8954 34.7852 37.9856 35.0052 37.9856 35.2345V48.9167C37.9856 49.1461 37.8954 49.3661 37.7348 49.5283C37.5742 49.6905 37.3564 49.7816 37.1293 49.7816Z" fill="#F2A83D"/>
<path d="M37.1275 36.0977H26.2387C26.0904 36.0976 25.9447 36.0587 25.8158 35.9847C25.6869 35.9106 25.5793 35.804 25.5034 35.6754C25.4275 35.5467 25.386 35.4003 25.383 35.2506C25.38 35.1008 25.4155 34.9529 25.486 34.8212L30.9304 24.6694C31.0107 24.5411 31.1218 24.4355 31.2534 24.3623C31.385 24.289 31.5329 24.2506 31.6831 24.2506C31.8333 24.2506 31.9812 24.289 32.1128 24.3623C32.2444 24.4355 32.3555 24.5411 32.4358 24.6694L37.8802 34.8212C37.9507 34.9529 37.9863 35.1008 37.9832 35.2506C37.9802 35.4003 37.9387 35.5467 37.8628 35.6754C37.7869 35.804 37.6793 35.9106 37.5504 35.9847C37.4215 36.0587 37.2758 36.0976 37.1275 36.0977ZM27.6765 34.368H35.6897L31.6831 26.8973L27.6765 34.368Z" fill="#F2A83D"/>
<path d="M31.683 50.6897C31.4559 50.6897 31.2381 50.5986 31.0775 50.4364C30.9169 50.2742 30.8267 50.0542 30.8267 49.8248V35.2345C30.8267 35.0052 30.9169 34.7852 31.0775 34.623C31.2381 34.4608 31.4559 34.3697 31.683 34.3697C31.9101 34.3697 32.1279 34.4608 32.2885 34.623C32.449 34.7852 32.5393 35.0052 32.5393 35.2345V49.8248C32.5393 50.0542 32.449 50.2742 32.2885 50.4364C32.1279 50.5986 31.9101 50.6897 31.683 50.6897Z" fill="#F2A83D"/>
</svg>
