<svg width="64" height="64" viewBox="0 0 64 64"  xmlns="http://www.w3.org/2000/svg">
<path d="M35.6772 62.2702H28.3258C27.712 62.2673 27.1194 62.0453 26.6548 61.6441C26.1901 61.2429 25.8841 60.689 25.7918 60.0821L25.3057 56.7956C23.171 56.215 21.1184 55.3662 19.1972 54.2694L16.5507 56.2439C16.056 56.609 15.447 56.7851 14.8338 56.7404C14.2206 56.6956 13.6436 56.433 13.2071 56L8.00063 50.7935C7.56774 50.357 7.30535 49.7801 7.26093 49.1669C7.21652 48.5538 7.393 47.9451 7.75847 47.4508L9.73122 44.8043C8.63504 42.8828 7.78649 40.8303 7.20582 38.6957L3.91933 38.2097C3.31245 38.1174 2.75843 37.8116 2.35698 37.3472C1.95554 36.8828 1.73302 36.2903 1.72949 35.6765V28.3251C1.73252 27.7114 1.95448 27.1189 2.35544 26.6542C2.7564 26.1895 3.31004 25.8831 3.91674 25.7902L7.20322 25.3042C7.7839 23.1696 8.63244 21.1171 9.72863 19.1956L7.75587 16.5492C7.39052 16.0547 7.2141 15.4458 7.25852 14.8326C7.30293 14.2194 7.56524 13.6423 7.99803 13.2056L13.2054 7.9991C13.6419 7.56637 14.2189 7.30409 14.8319 7.25968C15.445 7.21526 16.0537 7.39164 16.5481 7.75693L19.1946 9.73056C21.1158 8.63374 23.1684 7.78488 25.3031 7.20429L25.7892 3.9178C25.8815 3.31108 26.1874 2.75727 26.6518 2.35611C27.1163 1.95495 27.7087 1.73281 28.3224 1.72969H35.6737C36.2875 1.7326 36.8802 1.95465 37.3448 2.35583C37.8094 2.75701 38.1154 3.31094 38.2078 3.9178L38.6938 7.20429C40.8286 7.78488 42.8811 8.63374 44.8024 9.73056L47.4488 7.75693C47.9431 7.39147 48.5519 7.21498 49.165 7.2594C49.7781 7.30382 50.3551 7.56621 50.7915 7.9991L55.9989 13.2064C56.4318 13.6429 56.6942 14.2199 56.7386 14.833C56.783 15.4461 56.6065 16.0549 56.2411 16.5492L54.2683 19.1956C55.3645 21.1171 56.213 23.1696 56.7937 25.3042L60.0802 25.7902C60.6871 25.8825 61.2411 26.1884 61.6425 26.6528C62.044 27.1171 62.2665 27.7096 62.27 28.3234V35.6748C62.267 36.2887 62.0449 36.8813 61.6438 37.346C61.2426 37.8107 60.6888 38.117 60.0819 38.2097L56.7954 38.6957C56.2148 40.8303 55.3662 42.8828 54.27 44.8043L56.2428 47.4508C56.6081 47.9453 56.7846 48.5541 56.7401 49.1673C56.6957 49.7806 56.4334 50.3577 56.0006 50.7943L50.7933 56.0008C50.3569 56.4338 49.78 56.6964 49.1669 56.741C48.5538 56.7855 47.945 56.6092 47.4506 56.2439L44.8041 54.2694C42.8828 55.3662 40.8303 56.215 38.6955 56.7956L38.2095 60.0821C38.1172 60.6887 37.8114 61.2424 37.3472 61.6435C36.8829 62.0447 36.2907 62.2669 35.6772 62.2702ZM19.1358 52.371C19.2923 52.3709 19.446 52.4134 19.5803 52.4938C21.6638 53.7446 23.9223 54.6774 26.2813 55.2614C26.448 55.3025 26.5988 55.3923 26.7143 55.5193C26.8298 55.6464 26.9049 55.805 26.9299 55.9749L27.4999 59.8279C27.5296 60.025 27.6288 60.205 27.7797 60.3354C27.9305 60.4658 28.123 60.5379 28.3224 60.5388H35.6737C35.873 60.5379 36.0653 60.4659 36.2162 60.3357C36.367 60.2055 36.4663 60.0257 36.4962 59.8287L37.0661 55.9749C37.0912 55.805 37.1663 55.6464 37.2818 55.5193C37.3973 55.3923 37.548 55.3025 37.7148 55.2614C40.0737 54.6774 42.3323 53.7446 44.4158 52.4938C44.5628 52.4056 44.7327 52.3632 44.904 52.3718C45.0752 52.3804 45.24 52.4397 45.3775 52.5422L48.4824 54.8583C48.643 54.9767 48.8406 55.0338 49.0396 55.0194C49.2386 55.005 49.4259 54.9199 49.5678 54.7796L54.776 49.5723C54.9166 49.4306 55.0019 49.2433 55.0163 49.0442C55.0307 48.8451 54.9734 48.6474 54.8547 48.4869L52.5394 45.3811C52.437 45.2439 52.3776 45.0793 52.3688 44.9082C52.3601 44.7371 52.4023 44.5673 52.4901 44.4203C53.7407 42.3366 54.6735 40.0781 55.2577 37.7193C55.2987 37.5524 55.3884 37.4015 55.5155 37.2858C55.6426 37.1701 55.8012 37.0949 55.9712 37.0698L59.8242 36.5007C60.0223 36.4714 60.2034 36.3722 60.3347 36.2211C60.466 36.0699 60.539 35.8767 60.5403 35.6765V28.3251C60.5413 28.1251 60.4698 27.9314 60.3392 27.7799C60.2085 27.6284 60.0274 27.5293 59.8294 27.5009L55.9764 26.9319C55.8064 26.9067 55.6477 26.8315 55.5207 26.7158C55.3936 26.6002 55.3038 26.4492 55.2629 26.2823C54.6783 23.9236 53.7456 21.6652 52.4953 19.5814C52.4075 19.4343 52.3653 19.2645 52.374 19.0934C52.3828 18.9224 52.4422 18.7578 52.5446 18.6205L54.8599 15.5156C54.9787 15.355 55.036 15.1572 55.0216 14.9579C55.0071 14.7587 54.9219 14.5712 54.7812 14.4294L49.5738 9.22202C49.4319 9.08148 49.2444 8.99631 49.0452 8.98188C48.846 8.96745 48.6482 9.0247 48.4875 9.14331L45.3827 11.4594C45.2452 11.5619 45.0804 11.6212 44.9092 11.6299C44.7379 11.6385 44.568 11.596 44.421 11.5079C42.3375 10.257 40.0789 9.32422 37.72 8.74029C37.5532 8.69919 37.4025 8.60939 37.287 8.48232C37.1715 8.35525 37.0964 8.19666 37.0713 8.02677L36.4971 4.17034C36.4674 3.97363 36.3685 3.79396 36.2183 3.66364C36.068 3.53332 35.8761 3.46091 35.6772 3.45942H28.3258C28.1266 3.46026 27.9342 3.53227 27.7834 3.66247C27.6326 3.79267 27.5332 3.97249 27.5033 4.16947L26.9334 8.02331C26.9083 8.1932 26.8332 8.35179 26.7177 8.47886C26.6022 8.60593 26.4515 8.69573 26.2847 8.73683C23.9258 9.32076 21.6673 10.2536 19.5838 11.5044C19.4367 11.5926 19.2668 11.635 19.0955 11.6264C18.9243 11.6178 18.7595 11.5585 18.622 11.456L15.5172 9.13985C15.3565 9.02124 15.1587 8.96399 14.9595 8.97842C14.7603 8.99285 14.5728 9.07802 14.4309 9.21856L9.22355 14.4259C9.08292 14.5676 8.99767 14.7549 8.98323 14.954C8.9688 15.1531 9.02613 15.3508 9.14484 15.5113L11.4601 18.617C11.5625 18.7543 11.6219 18.9189 11.6307 19.09C11.6395 19.261 11.5972 19.4309 11.5094 19.5779C10.2591 21.6617 9.32638 23.9202 8.74182 26.2789C8.70087 26.4458 8.61113 26.5967 8.48405 26.7124C8.35697 26.8281 8.19831 26.9033 8.0283 26.9284L4.17014 27.5027C3.97269 27.531 3.79209 27.6296 3.66149 27.7804C3.53089 27.9311 3.45908 28.124 3.45922 28.3234V35.6748C3.46035 35.8741 3.53243 36.0665 3.66254 36.2176C3.79265 36.3686 3.97229 36.4684 4.16928 36.499L8.02311 37.0681C8.19312 37.0932 8.35178 37.1684 8.47886 37.2841C8.60595 37.3998 8.69568 37.5507 8.73663 37.7176C9.32087 40.0764 10.2537 42.3349 11.5042 44.4186C11.5921 44.5656 11.6343 44.7354 11.6255 44.9065C11.6167 45.0775 11.5573 45.2421 11.4549 45.3794L9.13965 48.4843C9.02087 48.6449 8.96351 48.8427 8.97795 49.042C8.99238 49.2412 9.07766 49.4287 9.21836 49.5706L14.4257 54.7779C14.5676 54.9184 14.7551 55.0036 14.9543 55.018C15.1535 55.0325 15.3513 54.9752 15.512 54.8566L18.6168 52.5405C18.767 52.4295 18.949 52.37 19.1358 52.371Z" fill="#F2A83D"/>
<path d="M27.304 15.7059C27.0898 15.7075 26.8825 15.6296 26.7225 15.4871C26.5625 15.3447 26.461 15.1479 26.4377 14.935C26.4145 14.722 26.4711 14.508 26.5966 14.3343C26.7221 14.1607 26.9076 14.0399 27.1172 13.9952C27.9678 13.7459 28.8377 13.568 29.7178 13.4633C29.9456 13.4359 30.1749 13.5001 30.3554 13.6418C30.5358 13.7835 30.6526 13.991 30.68 14.2188C30.7074 14.4466 30.6432 14.6759 30.5015 14.8563C30.3599 15.0368 30.1523 15.1535 29.9245 15.181C29.121 15.2761 28.327 15.4399 27.5513 15.6705C27.471 15.694 27.3877 15.7059 27.304 15.7059Z" fill="#F2A83D"/>
<path d="M31.9999 50.6898C27.0955 50.6332 22.4137 48.6338 18.9814 45.1301C15.5491 41.6265 13.6464 36.9046 13.6907 32C13.6889 30.06 13.9855 28.1313 14.5703 26.2815C14.6006 26.1689 14.6533 26.0635 14.7254 25.9718C14.7975 25.8801 14.8873 25.8038 14.9896 25.7478C15.0919 25.6917 15.2045 25.6568 15.3206 25.6454C15.4367 25.6339 15.5539 25.6461 15.6652 25.6811C15.7764 25.7162 15.8795 25.7733 15.9681 25.8492C16.0567 25.9251 16.129 26.0181 16.1807 26.1227C16.2324 26.2273 16.2625 26.3412 16.269 26.4577C16.2755 26.5742 16.2584 26.6908 16.2187 26.8005C15.6877 28.4825 15.4185 30.2362 15.4204 32C15.3756 36.446 17.0959 40.7282 20.204 43.9076C23.312 47.0869 27.5541 48.9039 31.9999 48.96C36.4457 48.9039 40.6878 47.0869 43.7958 43.9076C46.9039 40.7282 48.6241 36.446 48.5793 32C48.6161 28.2473 47.3983 24.5898 45.1193 21.608C42.8403 18.6263 39.6307 16.4912 35.9999 15.5416C35.8897 15.5138 35.7861 15.4646 35.695 15.3967C35.6038 15.3288 35.527 15.2437 35.4687 15.1461C35.4105 15.0485 35.3721 14.9404 35.3556 14.828C35.3392 14.7156 35.345 14.601 35.3729 14.4908C35.4007 14.3807 35.4499 14.2771 35.5178 14.1859C35.5857 14.0948 35.6708 14.0179 35.7684 13.9597C35.866 13.9015 35.9741 13.863 36.0865 13.8466C36.1989 13.8301 36.3135 13.836 36.4237 13.8638C40.428 14.9075 43.9691 17.2588 46.4847 20.5445C49.0003 23.8302 50.3463 27.8621 50.3091 32C50.3534 36.9046 48.4507 41.6265 45.0184 45.1301C41.5861 48.6338 36.9043 50.6332 31.9999 50.6898Z" fill="#F2A83D"/>
<path d="M19.6754 20.2551C19.5049 20.2556 19.3381 20.2057 19.1958 20.1116C19.0536 20.0175 18.9424 19.8835 18.8761 19.7264C18.8098 19.5692 18.7915 19.396 18.8234 19.2285C18.8553 19.061 18.936 18.9066 19.0553 18.7849C19.7379 18.0849 20.4773 17.4427 21.2659 16.8649C21.451 16.7293 21.6824 16.6728 21.9092 16.7078C22.1359 16.7429 22.3395 16.8666 22.475 17.0517C22.6106 17.2368 22.6671 17.4681 22.632 17.6949C22.597 17.9216 22.4733 18.1252 22.2882 18.2607C21.5782 18.781 20.9128 19.3596 20.299 19.9905C20.2182 20.0743 20.1214 20.1409 20.0142 20.1864C19.9071 20.2319 19.7918 20.2552 19.6754 20.2551Z" fill="#F2A83D"/>
<path d="M28.5407 38.0541C28.3114 38.054 28.0914 37.9629 27.9293 37.8006L24.4698 34.3412C24.3123 34.1781 24.2251 33.9596 24.2271 33.7328C24.2291 33.5061 24.32 33.2892 24.4804 33.1288C24.6407 32.9685 24.8576 32.8775 25.0844 32.8755C25.3112 32.8736 25.5296 32.9607 25.6927 33.1183L28.5407 35.9663L38.3077 26.1994C38.4708 26.0418 38.6893 25.9546 38.916 25.9566C39.1428 25.9586 39.3597 26.0495 39.5201 26.2099C39.6804 26.3702 39.7714 26.5872 39.7733 26.8139C39.7753 27.0407 39.6881 27.2592 39.5306 27.4223L29.1522 37.8006C28.9901 37.9629 28.7701 38.054 28.5407 38.0541Z" fill="#F2A83D"/>
</svg>
