<svg width="64" height="64" viewBox="0 0 64 64"  xmlns="http://www.w3.org/2000/svg">
<path d="M53.2412 40.1643C53.0982 40.1644 52.9573 40.1289 52.8313 40.0612C52.7053 39.9934 52.598 39.8955 52.5192 39.7761C52.4403 39.6567 52.3923 39.5196 52.3795 39.3771C52.3666 39.2346 52.3893 39.0911 52.4456 38.9595C52.7759 38.1812 53.0847 37.3621 53.3623 36.5137C53.4391 36.3028 53.5948 36.13 53.7966 36.0317C53.9984 35.9335 54.2304 35.9176 54.4438 35.9873C54.6571 36.057 54.835 36.207 54.9398 36.4054C55.0446 36.6039 55.0682 36.8353 55.0056 37.0508C54.7132 37.9468 54.3863 38.8177 54.0352 39.6393C53.9687 39.7949 53.858 39.9275 53.7169 40.0209C53.5758 40.1142 53.4104 40.164 53.2412 40.1643Z" fill="#F2A83D"/>
<path d="M31.9999 62.2703C31.8521 62.2703 31.7068 62.2325 31.5778 62.1604C16.2256 53.5645 7.42041 40.8346 7.42041 27.2346V8.28541C7.42041 8.16264 7.44656 8.04127 7.4971 7.92938C7.54765 7.8175 7.62143 7.71765 7.71356 7.63649C7.80568 7.55533 7.91403 7.49472 8.03139 7.45868C8.14876 7.42264 8.27245 7.412 8.39425 7.42747C16.5235 8.58872 24.7897 6.60609 31.5078 1.88368C31.6526 1.78306 31.8248 1.72913 32.0012 1.72913C32.1775 1.72913 32.3497 1.78306 32.4946 1.88368C38.8859 6.34379 46.4561 8.15482 55.6453 7.41882C55.7645 7.40837 55.8845 7.42315 55.9976 7.46219C56.1107 7.50123 56.2143 7.56366 56.3017 7.64541C56.3893 7.72647 56.4593 7.8248 56.507 7.9342C56.5548 8.0436 56.5794 8.16171 56.5793 8.28109V22.106C56.5793 22.3353 56.4882 22.5553 56.326 22.7175C56.1638 22.8797 55.9438 22.9708 55.7145 22.9708C55.4851 22.9708 55.2651 22.8797 55.1029 22.7175C54.9407 22.5553 54.8496 22.3353 54.8496 22.106V9.21428C45.8922 9.77298 38.4042 7.94552 31.9999 3.64195C25.3012 8.18888 17.193 10.1803 9.15014 9.25406V27.2346C9.15014 40.0657 17.4701 52.1367 31.9999 60.4125C38.6166 56.786 44.347 51.7374 48.7782 45.6303L48.9824 45.3328C49.0835 45.1857 49.1839 45.0396 49.279 44.89C49.402 44.6962 49.5968 44.5593 49.8207 44.5093C50.0446 44.4592 50.2792 44.5002 50.473 44.6231C50.6667 44.7461 50.8036 44.941 50.8536 45.1649C50.9037 45.3888 50.8627 45.6234 50.7398 45.8171C50.6334 45.984 50.5201 46.1483 50.4059 46.3135L50.2096 46.6032C46.0582 52.5942 39.9091 57.9693 32.4245 62.1604C32.2948 62.2329 32.1485 62.2708 31.9999 62.2703Z" fill="#F2A83D"/>
<path d="M55.508 31.5935C55.3857 31.5929 55.265 31.5664 55.1536 31.516C55.0422 31.4655 54.9428 31.3922 54.8616 31.3007C54.7805 31.2092 54.7196 31.1017 54.6828 30.9851C54.6461 30.8685 54.6343 30.7455 54.6483 30.624C54.7451 29.8292 54.8066 28.9911 54.8325 28.1332C54.8468 27.9064 54.947 27.6936 55.1126 27.5381C55.2783 27.3826 55.497 27.296 55.7242 27.296C55.9534 27.303 56.1705 27.4008 56.3277 27.5678C56.4848 27.7349 56.5692 27.9575 56.5622 28.1868C56.5346 29.0958 56.468 29.9857 56.3659 30.8324C56.3405 31.0422 56.2393 31.2354 56.0812 31.3756C55.9232 31.5158 55.7192 31.5933 55.508 31.5935Z" fill="#F2A83D"/>
<path d="M27.9231 37.9304C27.6937 37.9303 27.4738 37.8392 27.3116 37.677L21.8751 32.2404C21.7176 32.0773 21.6304 31.8589 21.6324 31.6321C21.6343 31.4053 21.7253 31.1884 21.8856 31.0281C22.046 30.8677 22.2629 30.7767 22.4897 30.7748C22.7164 30.7728 22.9349 30.86 23.098 31.0175L27.9231 35.8426L40.9021 22.8636C41.0652 22.706 41.2837 22.6189 41.5105 22.6208C41.7372 22.6228 41.9542 22.7137 42.1145 22.8741C42.2749 23.0345 42.3658 23.2514 42.3678 23.4781C42.3698 23.7049 42.2826 23.9234 42.125 24.0865L28.5346 37.677C28.3724 37.8392 28.1525 37.9303 27.9231 37.9304Z" fill="#F2A83D"/>
</svg>
