<svg width="64" height="64" viewBox="0 0 64 64" xmlns="http://www.w3.org/2000/svg">
<path d="M35.6772 62.2702H28.3258C27.712 62.2673 27.1194 62.0453 26.6548 61.6441C26.1901 61.2429 25.8841 60.689 25.7918 60.0821L25.3057 56.7956C23.171 56.215 21.1184 55.3662 19.1972 54.2694L16.5507 56.2439C16.0561 56.6087 15.4474 56.7847 14.8344 56.7402C14.2214 56.6956 13.6446 56.4334 13.208 56.0008L7.99717 50.7952C7.56428 50.3588 7.30189 49.7818 7.25747 49.1687C7.21306 48.5556 7.38954 47.9468 7.75501 47.4525L9.72776 44.806C8.63158 42.8846 7.78303 40.8321 7.20236 38.6975L3.91587 38.2114C3.30933 38.1184 2.7559 37.8119 2.35511 37.3472C1.95432 36.8826 1.73248 36.2901 1.72949 35.6765V28.3251C1.73252 27.7114 1.95448 27.1189 2.35544 26.6542C2.7564 26.1895 3.31004 25.8831 3.91674 25.7902L7.20322 25.3042C7.7839 23.1696 8.63244 21.1171 9.72863 19.1956L7.75587 16.5492C7.39052 16.0547 7.2141 15.4458 7.25852 14.8326C7.30293 14.2194 7.56524 13.6423 7.99803 13.2056L13.2054 7.9991C13.6418 7.56621 14.2188 7.30382 14.8319 7.2594C15.445 7.21498 16.0538 7.39147 16.5481 7.75693L19.1946 9.73056C21.1158 8.63374 23.1684 7.78488 25.3031 7.20429L25.7892 3.9178C25.8815 3.31108 26.1874 2.75727 26.6518 2.35611C27.1163 1.95495 27.7087 1.73281 28.3224 1.72969H35.6737C36.2874 1.73289 36.8799 1.95491 37.3445 2.35584C37.8092 2.75677 38.1156 3.31031 38.2086 3.91693L38.6938 7.20342C40.8286 7.78402 42.8811 8.63287 44.8024 9.72969L47.4488 7.75607C47.9431 7.39061 48.5519 7.21412 49.165 7.25854C49.7781 7.30295 50.3551 7.56534 50.7915 7.99823L55.9989 13.2056C56.4318 13.642 56.6942 14.219 56.7386 14.8321C56.783 15.4452 56.6065 16.054 56.2411 16.5483L54.2683 19.1948C55.3645 21.1162 56.213 23.1687 56.7937 25.3033L60.0802 25.7894C60.6872 25.8818 61.2412 26.1879 61.6426 26.6524C62.0441 27.1169 62.2665 27.7095 62.27 28.3234V35.6748C62.267 36.2887 62.0449 36.8813 61.6438 37.346C61.2426 37.8107 60.6888 38.117 60.0819 38.2097L56.7954 38.6957C56.2148 40.8303 55.3662 42.8828 54.27 44.8043L56.2428 47.4508C56.6081 47.9453 56.7846 48.5541 56.7401 49.1673C56.6957 49.7806 56.4334 50.3577 56.0006 50.7943L50.7933 56.0008C50.3569 56.4338 49.78 56.6964 49.1669 56.741C48.5538 56.7855 47.945 56.6092 47.4506 56.2439L44.8041 54.2694C42.8828 55.3662 40.8303 56.215 38.6955 56.7956L38.2104 60.0821C38.1175 60.6886 37.8115 61.2421 37.3472 61.6432C36.8828 62.0443 36.2907 62.2666 35.6772 62.2702ZM19.1358 52.371C19.2923 52.3709 19.446 52.4134 19.5803 52.4938C21.6638 53.7446 23.9223 54.6774 26.2813 55.2614C26.448 55.3025 26.5988 55.3923 26.7143 55.5193C26.8298 55.6464 26.9049 55.805 26.9299 55.9749L27.4999 59.8279C27.5296 60.025 27.6288 60.205 27.7797 60.3354C27.9305 60.4658 28.123 60.5379 28.3224 60.5388H35.6737C35.8731 60.5378 36.0656 60.4656 36.2166 60.3353C36.3675 60.2049 36.467 60.025 36.4971 59.8279L37.0661 55.9757C37.091 55.8057 37.166 55.6469 37.2816 55.5197C37.3971 55.3925 37.5479 55.3025 37.7148 55.2614C40.0737 54.6774 42.3323 53.7446 44.4158 52.4938C44.5628 52.4056 44.7327 52.3632 44.904 52.3718C45.0752 52.3804 45.24 52.4397 45.3775 52.5422L48.4824 54.8583C48.643 54.9767 48.8406 55.0338 49.0396 55.0194C49.2386 55.005 49.4259 54.9199 49.5678 54.7796L54.776 49.5723C54.9166 49.4306 55.0019 49.2433 55.0163 49.0442C55.0307 48.8451 54.9734 48.6474 54.8547 48.4869L52.5394 45.3811C52.437 45.2439 52.3776 45.0793 52.3688 44.9082C52.3601 44.7371 52.4023 44.5673 52.4901 44.4203C53.7407 42.3366 54.6735 40.0781 55.2577 37.7193C55.2987 37.5524 55.3884 37.4015 55.5155 37.2858C55.6426 37.1701 55.8012 37.0949 55.9712 37.0698L59.8242 36.5007C60.0223 36.4714 60.2034 36.3722 60.3347 36.2211C60.466 36.0699 60.539 35.8767 60.5403 35.6765V28.3251C60.5392 28.1258 60.4671 27.9334 60.337 27.7823C60.2069 27.6313 60.0272 27.5316 59.8302 27.5009L55.9764 26.9319C55.8064 26.9067 55.6477 26.8315 55.5207 26.7158C55.3936 26.6002 55.3038 26.4492 55.2629 26.2823C54.6783 23.9236 53.7456 21.6652 52.4953 19.5814C52.4075 19.4343 52.3653 19.2645 52.374 19.0934C52.3828 18.9224 52.4422 18.7578 52.5446 18.6205L54.8599 15.5156C54.9787 15.355 55.036 15.1572 55.0216 14.9579C55.0071 14.7587 54.9219 14.5712 54.7812 14.4294L49.5738 9.22202C49.4319 9.08148 49.2444 8.99631 49.0452 8.98188C48.846 8.96745 48.6482 9.0247 48.4875 9.14331L45.3827 11.4594C45.2452 11.5619 45.0804 11.6212 44.9092 11.6299C44.7379 11.6385 44.568 11.596 44.421 11.5079C42.3375 10.257 40.0789 9.32422 37.72 8.74029C37.5531 8.69913 37.4023 8.6092 37.2868 8.48196C37.1712 8.35473 37.0962 8.19595 37.0713 8.02591L36.4971 4.16947C36.4669 3.97307 36.3679 3.79381 36.2176 3.66372C36.0674 3.53364 35.8759 3.46122 35.6772 3.45942H28.3258C28.1266 3.46026 27.9342 3.53227 27.7834 3.66247C27.6326 3.79267 27.5332 3.97249 27.5033 4.16947L26.9334 8.02331C26.9083 8.1932 26.8332 8.35179 26.7177 8.47886C26.6022 8.60593 26.4515 8.69573 26.2847 8.73683C23.9258 9.32076 21.6673 10.2536 19.5838 11.5044C19.4367 11.5926 19.2668 11.635 19.0955 11.6264C18.9243 11.6178 18.7595 11.5585 18.622 11.456L15.5172 9.13985C15.3565 9.02101 15.1586 8.96369 14.9593 8.97829C14.76 8.99289 14.5725 9.07844 14.4309 9.21942L9.22355 14.4259C9.08292 14.5676 8.99767 14.7549 8.98323 14.954C8.9688 15.1531 9.02613 15.3508 9.14484 15.5113L11.4601 18.617C11.5625 18.7543 11.6219 18.9189 11.6307 19.09C11.6395 19.261 11.5972 19.4309 11.5094 19.5779C10.2591 21.6617 9.32638 23.9202 8.74182 26.2789C8.70087 26.4458 8.61113 26.5967 8.48405 26.7124C8.35697 26.8281 8.19831 26.9033 8.0283 26.9284L4.17014 27.5027C3.97269 27.531 3.79209 27.6296 3.66149 27.7804C3.53089 27.9311 3.45908 28.124 3.45922 28.3234V35.6748C3.46035 35.8741 3.53243 36.0665 3.66254 36.2176C3.79265 36.3686 3.97229 36.4684 4.16928 36.499L8.02311 37.0681C8.19312 37.0932 8.35178 37.1684 8.47886 37.2841C8.60595 37.3998 8.69568 37.5507 8.73663 37.7176C9.32087 40.0764 10.2537 42.3349 11.5042 44.4186C11.5921 44.5656 11.6343 44.7354 11.6255 44.9065C11.6167 45.0775 11.5573 45.2421 11.4549 45.3794L9.13965 48.4843C9.02087 48.6449 8.96351 48.8427 8.97795 49.042C8.99238 49.2412 9.07766 49.4287 9.21836 49.5706L14.4257 54.7779C14.5678 54.9181 14.7552 55.0031 14.9543 55.0175C15.1534 55.0319 15.3512 54.9749 15.512 54.8566L18.6168 52.5405C18.767 52.4295 18.949 52.37 19.1358 52.371Z" fill="#F2A83D"/>
<path d="M38.1577 49.5394C37.9553 49.5395 37.7593 49.4686 37.6038 49.3391C37.4483 49.2096 37.3432 49.0297 37.3067 48.8306C37.2702 48.6316 37.3046 48.4261 37.404 48.2498C37.5034 48.0735 37.6614 47.9377 37.8506 47.8659C38.6023 47.5808 39.3299 47.236 40.0266 46.835C40.1251 46.7782 40.2338 46.7414 40.3465 46.7266C40.4592 46.7118 40.5737 46.7194 40.6835 46.7488C40.7933 46.7783 40.8962 46.8291 40.9863 46.8984C41.0765 46.9676 41.1521 47.0539 41.2089 47.1524C41.2657 47.2509 41.3025 47.3596 41.3173 47.4723C41.3321 47.585 41.3245 47.6995 41.295 47.8093C41.2656 47.9191 41.2148 48.022 41.1455 48.1121C41.0763 48.2023 40.99 48.2779 40.8915 48.3347C40.1158 48.7806 39.3061 49.1643 38.4699 49.4824C38.3702 49.5205 38.2644 49.5398 38.1577 49.5394Z" fill="#F2A83D"/>
<path d="M31.4904 50.6724H31.4653C26.6473 50.5083 22.0861 48.4602 18.7622 44.9685C15.4384 41.4768 13.6174 36.8202 13.6906 32C13.6463 27.0955 15.549 22.3736 18.9813 18.8699C22.4136 15.3662 27.0954 13.3669 31.9998 13.3103C36.9042 13.3669 41.586 15.3662 45.0183 18.8699C48.4506 22.3736 50.3533 27.0955 50.309 32C50.308 32.945 50.2387 33.8888 50.1014 34.8238C50.0849 34.9362 50.0465 35.0442 49.9883 35.1417C49.9301 35.2393 49.8532 35.3244 49.7621 35.3922C49.671 35.46 49.5674 35.5092 49.4573 35.537C49.3471 35.5648 49.2326 35.5706 49.1202 35.5542C49.0078 35.5377 48.8998 35.4993 48.8023 35.441C48.7048 35.3828 48.6196 35.3059 48.5518 35.2148C48.484 35.1237 48.4348 35.0201 48.407 34.91C48.3792 34.7999 48.3734 34.6854 48.3899 34.573C48.5154 33.7211 48.5787 32.8611 48.5793 32C48.624 27.5541 46.9038 23.2718 43.7957 20.0925C40.6877 16.9131 36.4456 15.0961 31.9998 15.04C27.554 15.0961 23.3119 16.9131 20.2039 20.0925C17.0958 23.2718 15.3756 27.5541 15.4203 32C15.3497 36.369 16.9959 40.5914 20.0053 43.7596C23.0146 46.9277 27.1468 48.7888 31.5137 48.9427C31.7431 48.9458 31.9619 49.0399 32.1219 49.2043C32.2819 49.3687 32.37 49.5899 32.3669 49.8192C32.3638 50.0486 32.2697 50.2674 32.1054 50.4274C31.941 50.5874 31.7198 50.6755 31.4904 50.6724Z" fill="#F2A83D"/>
<path d="M45.137 44.5838C44.9714 44.5837 44.8093 44.5361 44.67 44.4467C44.5307 44.3572 44.4199 44.2296 44.351 44.079C44.282 43.9285 44.2578 43.7613 44.281 43.5973C44.3043 43.4334 44.3742 43.2796 44.4823 43.1542C45.0409 42.5048 45.5451 41.8106 45.9898 41.0785C46.0474 40.9788 46.1244 40.8916 46.2161 40.8221C46.3079 40.7525 46.4127 40.702 46.5242 40.6735C46.6358 40.6449 46.7519 40.639 46.8658 40.6559C46.9797 40.6729 47.0891 40.7124 47.1875 40.7722C47.2859 40.8319 47.3714 40.9108 47.4389 41.004C47.5065 41.0973 47.5547 41.2031 47.5809 41.3152C47.607 41.4274 47.6104 41.5436 47.591 41.6571C47.5716 41.7706 47.5297 41.8791 47.4678 41.9762C46.9736 42.7892 46.4133 43.5601 45.7926 44.2811C45.7116 44.3758 45.6111 44.4519 45.4979 44.5041C45.3848 44.5564 45.2616 44.5835 45.137 44.5838Z" fill="#F2A83D"/>
<path d="M32.0002 44.8285C31.881 44.8285 31.7631 44.8039 31.6538 44.7561C31.5446 44.7083 31.4464 44.6385 31.3654 44.5509C31.0195 44.1782 22.9321 35.3332 22.9321 28.2396C22.9321 25.8346 23.8875 23.528 25.5881 21.8274C27.2887 20.1268 29.5952 19.1715 32.0002 19.1715C34.4053 19.1715 36.7118 20.1268 38.4124 21.8274C40.113 23.528 41.0684 25.8346 41.0684 28.2396C41.0684 35.3315 32.9801 44.1782 32.6351 44.5509C32.5541 44.6385 32.4559 44.7083 32.3467 44.7561C32.2374 44.8039 32.1195 44.8285 32.0002 44.8285ZM32.0002 20.9012C30.0546 20.9032 28.1893 21.6771 26.8135 23.0528C25.4377 24.4286 24.6639 26.2939 24.6619 28.2396C24.6619 33.5766 30.1105 40.4342 32.0002 42.6517C33.89 40.4333 39.3386 33.5706 39.3386 28.2396C39.3366 26.2939 38.5627 24.4286 37.187 23.0528C35.8112 21.6771 33.9459 20.9032 32.0002 20.9012Z" fill="#F2A83D"/>
<path d="M32.0001 32.9998C31.0326 32.9998 30.0868 32.7129 29.2824 32.1754C28.478 31.6379 27.851 30.8739 27.4808 29.98C27.1105 29.0862 27.0136 28.1027 27.2024 27.1538C27.3911 26.2049 27.857 25.3333 28.5411 24.6491C29.2253 23.965 30.0969 23.4991 31.0458 23.3104C31.9947 23.1216 32.9782 23.2185 33.872 23.5888C34.7659 23.959 35.5299 24.586 36.0674 25.3904C36.6049 26.1948 36.8918 27.1406 36.8918 28.1081C36.8904 29.405 36.3746 30.6484 35.4575 31.5655C34.5404 32.4826 33.297 32.9984 32.0001 32.9998ZM32.0001 24.9461C31.3747 24.9461 30.7634 25.1316 30.2434 25.479C29.7234 25.8265 29.3181 26.3203 29.0788 26.8981C28.8395 27.4758 28.7769 28.1116 28.8989 28.7249C29.0209 29.3383 29.322 29.9017 29.7642 30.3439C30.2065 30.7861 30.7699 31.0873 31.3832 31.2093C31.9966 31.3313 32.6323 31.2687 33.2101 31.0293C33.7879 30.79 34.2817 30.3847 34.6291 29.8648C34.9766 29.3448 35.162 28.7335 35.162 28.1081C35.1611 27.2698 34.8277 26.466 34.2349 25.8733C33.6421 25.2805 32.8384 24.947 32.0001 24.9461Z" fill="#F2A83D"/>
</svg>
