<svg width="64" height="64" viewBox="0 0 64 64"  xmlns="http://www.w3.org/2000/svg">
<path d="M12.4869 43.2519H9.78332C9.55395 43.2519 9.33396 43.1608 9.17177 42.9986C9.00958 42.8364 8.91846 42.6164 8.91846 42.387C8.91846 42.1577 9.00958 41.9377 9.17177 41.7755C9.33396 41.6133 9.55395 41.5222 9.78332 41.5222H12.4869C12.7163 41.5222 12.9362 41.6133 13.0984 41.7755C13.2606 41.9377 13.3518 42.1577 13.3518 42.387C13.3518 42.6164 13.2606 42.8364 13.0984 42.9986C12.9362 43.1608 12.7163 43.2519 12.4869 43.2519Z" fill="#F2A83D"/>
<path d="M58.8106 48.4324H5.18895C4.27145 48.4324 3.39152 48.0679 2.74274 47.4192C2.09397 46.7704 1.72949 45.8905 1.72949 44.973V6.92756C1.72949 6.01005 2.09397 5.13012 2.74274 4.48135C3.39152 3.83258 4.27145 3.4681 5.18895 3.4681H58.8106C59.7281 3.4681 60.608 3.83258 61.2568 4.48135C61.9056 5.13012 62.27 6.01005 62.27 6.92756V44.973C62.27 45.8905 61.9056 46.7704 61.2568 47.4192C60.608 48.0679 59.7281 48.4324 58.8106 48.4324ZM5.18895 5.19783C4.7302 5.19783 4.29024 5.38007 3.96585 5.70445C3.64146 6.02884 3.45922 6.4688 3.45922 6.92756V44.973C3.45922 45.4317 3.64146 45.8717 3.96585 46.1961C4.29024 46.5205 4.7302 46.7027 5.18895 46.7027H58.8106C59.2693 46.7027 59.7093 46.5205 60.0337 46.1961C60.3581 45.8717 60.5403 45.4317 60.5403 44.973V6.92756C60.5403 6.4688 60.3581 6.02884 60.0337 5.70445C59.7093 5.38007 59.2693 5.19783 58.8106 5.19783H5.18895Z" fill="#F2A83D"/>
<path d="M40.6484 38.0627H38.0797C37.8503 38.0627 37.6304 37.9716 37.4682 37.8094C37.306 37.6472 37.2148 37.4272 37.2148 37.1978C37.2148 36.9685 37.306 36.7485 37.4682 36.5863C37.6304 36.4241 37.8503 36.333 38.0797 36.333H40.6484C40.8777 36.333 41.0977 36.4241 41.2599 36.5863C41.4221 36.7485 41.5132 36.9685 41.5132 37.1978C41.5132 37.4272 41.4221 37.6472 41.2599 37.8094C41.0977 37.9716 40.8777 38.0627 40.6484 38.0627Z" fill="#F2A83D"/>
<path d="M23.4635 38.0627H2.59436C2.36498 38.0627 2.145 37.9716 1.98281 37.8094C1.82061 37.6472 1.72949 37.4272 1.72949 37.1978C1.72949 36.9685 1.82061 36.7485 1.98281 36.5863C2.145 36.4241 2.36498 36.333 2.59436 36.333H23.4635C23.6929 36.333 23.9129 36.4241 24.0751 36.5863C24.2373 36.7485 24.3284 36.9685 24.3284 37.1978C24.3284 37.4272 24.2373 37.6472 24.0751 37.8094C23.9129 37.9716 23.6929 38.0627 23.4635 38.0627Z" fill="#F2A83D"/>
<path d="M32.0258 38.0627H29.5177C29.2883 38.0627 29.0683 37.9716 28.9061 37.8094C28.744 37.6472 28.6528 37.4272 28.6528 37.1978C28.6528 36.9685 28.744 36.7485 28.9061 36.5863C29.0683 36.4241 29.2883 36.333 29.5177 36.333H32.0258C32.2552 36.333 32.4752 36.4241 32.6374 36.5863C32.7996 36.7485 32.8907 36.9685 32.8907 37.1978C32.8907 37.4272 32.7996 37.6472 32.6374 37.8094C32.4752 37.9716 32.2552 38.0627 32.0258 38.0627Z" fill="#F2A83D"/>
<path d="M61.4055 38.0627H46.7028C46.4734 38.0627 46.2534 37.9716 46.0912 37.8094C45.929 37.6472 45.8379 37.4272 45.8379 37.1978C45.8379 36.9685 45.929 36.7485 46.0912 36.5863C46.2534 36.4241 46.4734 36.333 46.7028 36.333H61.4055C61.6348 36.333 61.8548 36.4241 62.017 36.5863C62.1792 36.7485 62.2703 36.9685 62.2703 37.1978C62.2703 37.4272 62.1792 37.6472 62.017 37.8094C61.8548 37.9716 61.6348 38.0627 61.4055 38.0627Z" fill="#F2A83D"/>
<path d="M24.2474 15.9792L21.8353 24.6867H20.7309L18.6405 17.1243L16.5432 24.691H15.4388L13.0327 15.9792H14.2435L15.9845 23.0711L17.9443 15.9792H19.3281L21.2887 23.0711L23.0288 15.9792H24.2474Z" fill="#F2A83D"/>
<path d="M21.9177 24.7948H20.649L18.6407 17.5256L16.6256 24.7948H15.3568L12.8911 15.8712H14.3294L15.9908 22.6431L17.8632 15.8712H19.4113L21.2829 22.6431L22.9452 15.8712H24.3895L21.9177 24.7948ZM20.8124 24.5786H21.7534L24.1058 16.0874H23.1147L21.2985 23.4993L19.2479 16.0865H18.0275L15.9795 23.4984L14.1633 16.0865H13.1774L15.5229 24.5778H16.4639L18.6433 16.7135L20.8124 24.5786Z" fill="#F2A83D"/>
<path d="M37.6069 15.9792L35.2 24.6867H34.0904L32 17.1243L29.9036 24.691H28.8L26.3931 15.9792H27.6039L29.344 23.0711L31.3038 15.9792H32.6876L34.6473 23.0711L36.3874 15.9792H37.6069Z" fill="#F2A83D"/>
<path d="M35.2777 24.7948H34.0081L31.9999 17.5256L29.9848 24.7948H28.7134L26.2485 15.8712H27.6868L29.3482 22.6431L31.2206 15.8712H32.7688L34.6412 22.6431L36.3026 15.8712H37.7461L35.2777 24.7948ZM34.1724 24.5786H35.1134L37.465 16.0865H36.4738L34.6576 23.4984L32.6053 16.0865H31.3867L29.3387 23.4984L27.5225 16.0865H26.5348L28.8803 24.5778H29.8204L31.9999 16.7144L34.1724 24.5786Z" fill="#F2A83D"/>
<path d="M50.9676 15.9792L48.5555 24.6867H47.4511L45.3598 17.1243L43.2634 24.691H42.159L39.7529 15.9792H40.9637L42.7047 23.0711L44.6645 15.9792H46.0483L48.0089 23.0711L49.749 15.9792H50.9676Z" fill="#F2A83D"/>
<path d="M48.6374 24.7948H47.3695L45.3596 17.5256L43.3453 24.7948H42.0766L39.6108 15.8712H41.0491L42.7114 22.6431L44.583 15.8712H46.1311L48.0035 22.6431L49.6649 15.8712H51.1135L48.6374 24.7948ZM47.533 24.5786H48.474L50.8255 16.0865H49.8335L48.0173 23.4984L45.9667 16.0865H44.7464L42.6993 23.4984L40.8831 16.0865H39.8971L42.2435 24.5778H43.1845L45.3622 16.7135L47.533 24.5786Z" fill="#F2A83D"/>
<path d="M45.97 60.5492H18.0297C17.8722 60.5493 17.7176 60.5065 17.5827 60.4252C17.4478 60.3439 17.3376 60.2273 17.2641 60.088C17.1905 59.9487 17.1565 59.792 17.1655 59.6347C17.1745 59.4775 17.2263 59.3257 17.3153 59.1957L17.4572 58.9898C19.7707 55.6305 21.0069 51.6465 21.0014 47.5676C21.0014 47.3382 21.0925 47.1182 21.2547 46.956C21.4169 46.7938 21.6369 46.7027 21.8663 46.7027H42.1335C42.3629 46.7027 42.5829 46.7938 42.745 46.956C42.9072 47.1182 42.9984 47.3382 42.9984 47.5676C42.9936 51.6464 44.2304 55.63 46.5443 58.989L46.687 59.1957C46.776 59.3257 46.8278 59.4775 46.8369 59.6347C46.8459 59.792 46.8118 59.9487 46.7383 60.088C46.6648 60.2273 46.5546 60.3439 46.4196 60.4252C46.2847 60.5065 46.1301 60.5493 45.9726 60.5492H45.97ZM19.6219 58.8195H44.3778C42.4888 55.6728 41.425 52.1 41.2851 48.4324H22.7147C22.5751 52.1 21.5113 55.6729 19.6219 58.8195Z" fill="#F2A83D"/>
</svg>
