<svg width="64" height="64" viewBox="0 0 64 64" xmlns="http://www.w3.org/2000/svg">
<path d="M61.4055 21.5542H2.59471C2.44931 21.5542 2.30624 21.5176 2.17873 21.4477C2.05122 21.3779 1.94338 21.277 1.86519 21.1544C1.787 21.0318 1.74098 20.8915 1.73138 20.7464C1.72178 20.6013 1.74891 20.4561 1.81027 20.3243L8.0373 6.89643C8.10734 6.74768 8.21833 6.62197 8.35727 6.53405C8.4962 6.44612 8.65732 6.39962 8.82173 6.4H55.1785C55.3434 6.40001 55.5048 6.44715 55.6438 6.53587C55.7828 6.62459 55.8935 6.75119 55.9629 6.90075L62.1899 20.3286C62.2503 20.4603 62.2767 20.605 62.2666 20.7495C62.2566 20.8939 62.2104 21.0336 62.1323 21.1556C62.0542 21.2775 61.9468 21.378 61.8198 21.4476C61.6928 21.5172 61.5503 21.5539 61.4055 21.5542ZM3.94909 19.8244H60.0511L54.6258 8.12973H9.37438L3.94909 19.8244Z" fill="#F2A83D"/>
<path d="M46.7028 21.5542H17.2974C17.1616 21.5543 17.0276 21.5224 16.9063 21.4611C16.785 21.3998 16.6799 21.3108 16.5995 21.2013C16.5191 21.0918 16.4656 20.9649 16.4433 20.8309C16.4211 20.6968 16.4307 20.5594 16.4715 20.4298L20.6704 7.0054C20.7257 6.82969 20.8356 6.67621 20.9841 6.56731C21.1327 6.45842 21.3121 6.3998 21.4963 6.39999H42.5005C42.6846 6.3998 42.8641 6.45842 43.0127 6.56731C43.1612 6.67621 43.2711 6.82969 43.3264 7.0054L47.5288 20.4342C47.5695 20.5638 47.5792 20.7012 47.5569 20.8352C47.5347 20.9692 47.4812 21.0962 47.4008 21.2056C47.3203 21.3151 47.2152 21.4042 47.0939 21.4655C46.9727 21.5268 46.8387 21.5586 46.7028 21.5585V21.5542ZM18.4745 19.8244H45.5257L41.8648 8.12972H22.1355L18.4745 19.8244Z" fill="#F2A83D"/>
<path d="M31.9999 57.6C31.828 57.6 31.66 57.5487 31.5173 57.4527C31.3747 57.3568 31.2639 57.2205 31.1991 57.0612L16.4964 21.0128C16.4435 20.8816 16.4235 20.7395 16.4383 20.5988C16.4531 20.4582 16.5022 20.3233 16.5813 20.206C16.6603 20.0887 16.7669 19.9926 16.8917 19.9261C17.0166 19.8596 17.1558 19.8247 17.2972 19.8245H46.7026C46.8445 19.8244 46.9842 19.8593 47.1094 19.926C47.2346 19.9927 47.3415 20.0892 47.4206 20.207C47.4998 20.3247 47.5487 20.4601 47.5632 20.6013C47.5776 20.7424 47.5571 20.8849 47.5035 21.0163L32.8008 57.0647C32.7354 57.2233 32.6244 57.3589 32.4818 57.4542C32.3392 57.5495 32.1715 57.6003 31.9999 57.6ZM18.5841 21.5542L31.9999 54.4485L45.4157 21.5542H18.5841Z" fill="#F2A83D"/>
<path d="M49.4702 36.1859C49.3065 36.1859 49.1462 36.1394 49.0079 36.0519C48.8696 35.9644 48.7589 35.8394 48.6888 35.6915C48.6187 35.5436 48.592 35.3788 48.6118 35.2163C48.6317 35.0538 48.6972 34.9003 48.8008 34.7736L50.4267 32.7844C50.498 32.6945 50.5864 32.6197 50.6868 32.5643C50.7872 32.5089 50.8977 32.474 51.0117 32.4617C51.1257 32.4494 51.2411 32.4599 51.351 32.4926C51.461 32.5253 51.5633 32.5795 51.6521 32.6521C51.7409 32.7247 51.8143 32.8143 51.8682 32.9155C51.922 33.0168 51.9552 33.1278 51.9657 33.242C51.9763 33.3562 51.964 33.4713 51.9297 33.5808C51.8953 33.6902 51.8395 33.7917 51.7656 33.8793L50.1405 35.8685C50.0593 35.9678 49.957 36.0478 49.8411 36.1027C49.7252 36.1576 49.5985 36.186 49.4702 36.1859Z" fill="#F2A83D"/>
<path d="M31.9998 57.6C31.8715 57.6 31.7447 57.5714 31.6288 57.5164C31.5129 57.4613 31.4106 57.3812 31.3295 57.2817L1.92411 21.2342C1.82072 21.1074 1.7554 20.9539 1.73575 20.7915C1.7161 20.629 1.74293 20.4644 1.81311 20.3166C1.88329 20.1688 1.99395 20.0439 2.13224 19.9565C2.27053 19.8691 2.43078 19.8227 2.59438 19.8227H61.4052C61.5688 19.8227 61.7291 19.8691 61.8673 19.9565C62.0056 20.0439 62.1163 20.1688 62.1865 20.3166C62.2567 20.4644 62.2835 20.629 62.2638 20.7915C62.2442 20.9539 62.1789 21.1074 62.0755 21.2342L55.5976 29.1736C55.5259 29.2617 55.4374 29.3347 55.3374 29.3885C55.2374 29.4424 55.1278 29.476 55.0148 29.4875C54.9018 29.499 54.7877 29.4881 54.6789 29.4555C54.5701 29.4228 54.4688 29.3691 54.3808 29.2973C54.2927 29.2255 54.2197 29.1371 54.1659 29.0371C54.112 28.9371 54.0784 28.8275 54.0669 28.7145C54.0554 28.6015 54.0663 28.4873 54.0989 28.3785C54.1316 28.2698 54.1853 28.1685 54.2571 28.0804L59.5838 21.5524H4.41579L31.9998 55.3669L39.5371 46.1215C39.6089 46.0335 39.6973 45.9605 39.7973 45.9066C39.8973 45.8528 40.0069 45.8191 40.1199 45.8077C40.2329 45.7962 40.3471 45.8071 40.4558 45.8397C40.5646 45.8723 40.6659 45.9261 40.754 45.9978C40.842 46.0696 40.915 46.158 40.9688 46.258C41.0227 46.358 41.0563 46.4677 41.0678 46.5807C41.0793 46.6937 41.0684 46.8078 41.0358 46.9166C41.0031 47.0254 40.9494 47.1267 40.8776 47.2147L32.6701 57.2817C32.589 57.3812 32.4867 57.4613 32.3708 57.5164C32.2549 57.5714 32.1281 57.6 31.9998 57.6Z" fill="#F2A83D"/>
<path d="M44.0477 42.8367C43.8841 42.8368 43.724 42.7905 43.5857 42.7031C43.4474 42.6158 43.3368 42.4911 43.2665 42.3435C43.1963 42.1958 43.1693 42.0312 43.1888 41.8689C43.2082 41.7065 43.2734 41.553 43.3765 41.4262L44.9592 39.4802C45.104 39.3022 45.3135 39.189 45.5417 39.1655C45.7699 39.142 45.9981 39.2101 46.1761 39.3548C46.3541 39.4996 46.4673 39.7091 46.4908 39.9373C46.5143 40.1655 46.4462 40.3937 46.3015 40.5717L44.7188 42.5176C44.6377 42.6173 44.5354 42.6977 44.4193 42.7529C44.3032 42.8081 44.1762 42.8368 44.0477 42.8367Z" fill="#F2A83D"/>
</svg>
