<svg width="64" height="64" viewBox="0 0 64 64" xmlns="http://www.w3.org/2000/svg">
<path d="M56.1987 33.9961H43.2707C43.0413 33.9961 42.8214 33.905 42.6592 33.7428C42.497 33.5806 42.4059 33.3606 42.4059 33.1313C42.4059 32.9019 42.497 32.6819 42.6592 32.5197C42.8214 32.3575 43.0413 32.2664 43.2707 32.2664H55.3339V28.8606C55.3339 27.5944 54.8316 26.38 53.9372 25.4839C53.0428 24.5877 51.8294 24.083 50.5633 24.0804H43.173C42.6547 24.0811 42.1398 24.1652 41.6482 24.3295C41.4319 24.3953 41.1984 24.3738 40.9977 24.2695C40.7971 24.1652 40.6452 23.9864 40.5748 23.7715C40.5043 23.5567 40.5208 23.3227 40.6208 23.1199C40.7207 22.917 40.8961 22.7614 41.1094 22.6863C41.7751 22.4657 42.4717 22.3524 43.173 22.3507H50.5633C52.2879 22.3539 53.9409 23.0411 55.1595 24.2615C56.3781 25.4819 57.0629 27.1359 57.0636 28.8606V33.1313C57.0636 33.3606 56.9725 33.5806 56.8103 33.7428C56.6481 33.905 56.4281 33.9961 56.1987 33.9961Z" fill="#F2A83D"/>
<path d="M52.117 53.414C51.9487 53.4142 51.784 53.3652 51.6431 53.2731C51.5022 53.1809 51.3912 53.0497 51.3238 52.8954C51.2564 52.7412 51.2355 52.5706 51.2636 52.4046C51.2918 52.2386 51.3677 52.0845 51.4822 51.9611C56.2173 46.8371 58.8359 40.1098 58.8111 33.133C58.8111 32.9036 58.9022 32.6836 59.0644 32.5214C59.2266 32.3592 59.4466 32.2681 59.6759 32.2681C59.9053 32.2681 60.1253 32.3592 60.2875 32.5214C60.4497 32.6836 60.5408 32.9036 60.5408 33.133C60.5664 40.5458 57.783 47.6931 52.751 53.1364C52.6701 53.2238 52.5721 53.2936 52.463 53.3414C52.3539 53.3892 52.2361 53.4139 52.117 53.414Z" fill="#F2A83D"/>
<path d="M32 62.2703C16.2595 62.2703 3.45947 49.1996 3.45947 33.133C3.45947 32.9036 3.55059 32.6836 3.71279 32.5214C3.87498 32.3592 4.09496 32.2681 4.32434 32.2681C4.55371 32.2681 4.7737 32.3592 4.93589 32.5214C5.09808 32.6836 5.1892 32.9036 5.1892 33.133C5.1892 48.2456 17.216 60.5405 32 60.5405C35.824 60.5489 39.6031 59.7172 43.0703 58.1042C43.2787 58.0077 43.5168 57.998 43.7324 58.0772C43.948 58.1563 44.1232 58.3179 44.2197 58.5263C44.3162 58.7346 44.3259 58.9728 44.2467 59.1884C44.1676 59.4039 44.006 59.5792 43.7976 59.6757C40.1026 61.3943 36.0751 62.28 32 62.2703Z" fill="#F2A83D"/>
<path d="M47.3175 57.5481C47.1323 57.5485 46.9518 57.4895 46.8026 57.3796C46.6535 57.2697 46.5435 57.1149 46.489 56.9378C46.4345 56.7608 46.4382 56.5709 46.4997 56.3961C46.5612 56.2214 46.6772 56.071 46.8306 55.9671C47.3115 55.6411 47.7819 55.2969 48.2697 54.9137C48.3585 54.8391 48.4613 54.7831 48.5721 54.749C48.683 54.7149 48.7995 54.7034 48.9149 54.7153C49.0302 54.7272 49.142 54.7621 49.2436 54.818C49.3451 54.8739 49.4344 54.9497 49.5061 55.0409C49.5778 55.132 49.6305 55.2366 49.6609 55.3485C49.6914 55.4604 49.699 55.5772 49.6834 55.6921C49.6678 55.807 49.6292 55.9176 49.57 56.0173C49.5108 56.117 49.4321 56.2038 49.3387 56.2724C48.8198 56.6815 48.3164 57.0508 47.8018 57.3968C47.6592 57.4945 47.4905 57.5472 47.3175 57.5481Z" fill="#F2A83D"/>
<path d="M31.9999 62.2703C24.3796 62.2703 18.4111 49.4703 18.4111 33.1312C18.4111 32.9019 18.5023 32.6819 18.6644 32.5197C18.8266 32.3575 19.0466 32.2664 19.276 32.2664C19.5054 32.2664 19.7254 32.3575 19.8876 32.5197C20.0497 32.6819 20.1409 32.9019 20.1409 33.1312C20.1409 47.9888 25.5713 60.5405 31.9999 60.5405C38.4284 60.5405 43.8589 47.9888 43.8589 33.1312C43.8589 32.9019 43.95 32.6819 44.1122 32.5197C44.2744 32.3575 44.4944 32.2664 44.7238 32.2664C44.9532 32.2664 45.1731 32.3575 45.3353 32.5197C45.4975 32.6819 45.5886 32.9019 45.5886 33.1312C45.5886 49.4703 39.6202 62.2703 31.9999 62.2703Z" fill="#F2A83D"/>
<path d="M59.6757 33.9961H4.32434C4.09496 33.9961 3.87498 33.905 3.71279 33.7428C3.55059 33.5806 3.45947 33.3606 3.45947 33.1312C3.45947 32.9019 3.55059 32.6819 3.71279 32.5197C3.87498 32.3575 4.09496 32.2664 4.32434 32.2664H59.6757C59.9051 32.2664 60.1251 32.3575 60.2873 32.5197C60.4494 32.6819 60.5406 32.9019 60.5406 33.1312C60.5406 33.3606 60.4494 33.5806 60.2873 33.7428C60.1251 33.905 59.9051 33.9961 59.6757 33.9961Z" fill="#F2A83D"/>
<path d="M55.9629 48.1332H8.03723C7.80785 48.1332 7.58787 48.0421 7.42568 47.8799C7.26348 47.7177 7.17236 47.4977 7.17236 47.2684C7.17236 47.039 7.26348 46.819 7.42568 46.6568C7.58787 46.4946 7.80785 46.4035 8.03723 46.4035H55.9629C56.1922 46.4035 56.4122 46.4946 56.5744 46.6568C56.7366 46.819 56.8277 47.039 56.8277 47.2684C56.8277 47.4977 56.7366 47.7177 56.5744 47.8799C56.4122 48.0421 56.1922 48.1332 55.9629 48.1332Z" fill="#F2A83D"/>
<path d="M32.0001 62.2703C31.7707 62.2703 31.5508 62.1792 31.3886 62.017C31.2264 61.8548 31.1353 61.6348 31.1353 61.4054V33.1312C31.1353 32.9019 31.2264 32.6819 31.3886 32.5197C31.5508 32.3575 31.7707 32.2664 32.0001 32.2664C32.2295 32.2664 32.4495 32.3575 32.6117 32.5197C32.7739 32.6819 32.865 32.9019 32.865 33.1312V61.4054C32.865 61.6348 32.7739 61.8548 32.6117 62.017C32.4495 62.1792 32.2295 62.2703 32.0001 62.2703Z" fill="#F2A83D"/>
<path d="M43.2732 33.9961H20.7262C20.4968 33.9961 20.2768 33.905 20.1146 33.7428C19.9524 33.5806 19.8613 33.3606 19.8613 33.1312V28.2015C19.8636 26.166 20.6732 24.2144 22.1125 22.775C23.5517 21.3356 25.5032 20.5258 27.5387 20.5232H36.4607C38.4962 20.5258 40.4477 21.3356 41.887 22.775C43.3262 24.2144 44.1358 26.166 44.1381 28.2015V33.1312C44.1381 33.3606 44.047 33.5806 43.8848 33.7428C43.7226 33.905 43.5026 33.9961 43.2732 33.9961ZM21.5911 32.2664H42.4084V28.2015C42.4065 26.6246 41.7793 25.1127 40.6644 23.9976C39.5494 22.8824 38.0376 22.255 36.4607 22.253H27.5387C25.9618 22.255 24.45 22.8824 23.3351 23.9976C22.2201 25.1127 21.5929 26.6246 21.5911 28.2015V32.2664Z" fill="#F2A83D"/>
<path d="M20.7289 33.9961H7.8009C7.57152 33.9961 7.35154 33.905 7.18935 33.7428C7.02715 33.5806 6.93604 33.3606 6.93604 33.1313V28.8606C6.93672 27.1359 7.62149 25.4819 8.84011 24.2615C10.0587 23.0411 11.7117 22.3539 13.4364 22.3507H20.8266C21.5279 22.3524 22.2245 22.4657 22.8902 22.6863C23.1035 22.7614 23.2789 22.917 23.3788 23.1199C23.4788 23.3227 23.4953 23.5567 23.4248 23.7715C23.3544 23.9864 23.2026 24.1652 23.0019 24.2695C22.8013 24.3738 22.5677 24.3953 22.3514 24.3295C21.8598 24.1652 21.345 24.0811 20.8266 24.0804H13.4364C12.1702 24.083 10.9568 24.5877 10.0625 25.4839C9.16807 26.38 8.66576 27.5944 8.66576 28.8606V32.2664H20.7289C20.9583 32.2664 21.1783 32.3575 21.3404 32.5197C21.5026 32.6819 21.5938 32.9019 21.5938 33.1313C21.5938 33.3606 21.5026 33.5806 21.3404 33.7428C21.1783 33.905 20.9583 33.9961 20.7289 33.9961Z" fill="#F2A83D"/>
<path d="M32 17.5697C28.038 17.5697 24.8467 12.813 24.8467 8.88302C24.8467 6.98585 25.6003 5.16638 26.9418 3.82488C28.2833 2.48337 30.1028 1.72972 32 1.72972C33.8972 1.72972 35.7166 2.48337 37.0581 3.82488C38.3996 5.16638 39.1533 6.98585 39.1533 8.88302C39.1533 12.8173 35.9619 17.5697 32 17.5697ZM32 3.45945C30.562 3.46106 29.1835 4.03298 28.1667 5.04975C27.1499 6.06652 26.578 7.44509 26.5764 8.88302C26.5764 11.9498 29.1304 15.84 32 15.84C34.8696 15.84 37.4235 11.9481 37.4235 8.88302C37.4219 7.44509 36.85 6.06652 35.8332 5.04975C34.8165 4.03298 33.4379 3.46106 32 3.45945Z" fill="#F2A83D"/>
<path d="M46.8677 20.0121C43.5068 20.0121 40.7998 15.9974 40.7998 12.6737C40.7998 11.0642 41.4392 9.52056 42.5773 8.38245C43.7154 7.24434 45.259 6.60495 46.8686 6.60495C48.4781 6.60495 50.0217 7.24434 51.1598 8.38245C52.2979 9.52056 52.9373 11.0642 52.9373 12.6737C52.9373 16 50.2303 20.0121 46.8677 20.0121ZM46.8677 8.33641C45.7174 8.33779 44.6147 8.7954 43.8014 9.60885C42.9881 10.4223 42.5307 11.5252 42.5295 12.6754C42.5295 15.1472 44.5723 18.2841 46.8677 18.2841C49.163 18.2841 51.2076 15.1472 51.2076 12.6754C51.2067 11.5246 50.7492 10.4212 49.9355 9.60738C49.1218 8.79355 48.0185 8.33583 46.8677 8.33468V8.33641Z" fill="#F2A83D"/>
<path d="M17.1321 20.0121C13.7695 20.0121 11.0625 15.9974 11.0625 12.6737C11.0625 11.8767 11.2195 11.0876 11.5245 10.3513C11.8294 9.615 12.2765 8.94599 12.84 8.38245C13.4035 7.81891 14.0725 7.37189 14.8088 7.06691C15.5451 6.76193 16.3343 6.60495 17.1313 6.60495C17.9282 6.60495 18.7174 6.76193 19.4537 7.06691C20.19 7.37189 20.859 7.81891 21.4225 8.38245C21.9861 8.94599 22.4331 9.615 22.7381 10.3513C23.043 11.0876 23.2 11.8767 23.2 12.6737C23.2 16 20.4973 20.0121 17.1321 20.0121ZM17.1321 8.33641C15.9816 8.33756 14.8785 8.79504 14.0649 9.6085C13.2513 10.4219 12.7936 11.5249 12.7922 12.6754C12.7922 15.1472 14.835 18.2841 17.1321 18.2841C19.4292 18.2841 21.4703 15.1472 21.4703 12.6754C21.4696 11.5249 21.0124 10.4216 20.1991 9.60774C19.3857 8.79391 18.2827 8.33606 17.1321 8.33468V8.33641Z" fill="#F2A83D"/>
</svg>
