<svg width="64" height="64" viewBox="0 0 64 64"  xmlns="http://www.w3.org/2000/svg">
<path d="M55.6971 50.7244C55.5288 50.7251 55.3641 50.6762 55.2234 50.5837C55.0827 50.4913 54.9724 50.3595 54.9063 50.2047C54.8401 50.05 54.821 49.8792 54.8514 49.7136C54.8817 49.5481 54.9602 49.3952 55.077 49.274C55.148 49.2039 55.1505 49.1598 55.1237 49.1269L52.2299 45.408C52.095 45.2266 52.0365 44.9996 52.067 44.7755C52.0974 44.5515 52.2144 44.3483 52.3928 44.2095C52.5712 44.0706 52.7969 44.0072 53.0216 44.0327C53.2462 44.0582 53.4519 44.1707 53.5947 44.346L56.4833 48.0562C56.7615 48.4061 56.8996 48.8469 56.8706 49.2929C56.8417 49.739 56.6478 50.1583 56.3268 50.4692C56.1581 50.633 55.9322 50.7245 55.6971 50.7244Z" fill="#F2A83D"/>
<path d="M36.1425 62.2702H27.8571C27.4129 62.2698 26.9841 62.1074 26.6511 61.8135C26.318 61.5196 26.1035 61.1144 26.0478 60.6737L25.464 56.0839C23.4098 55.5215 21.4341 54.7042 19.5829 53.651L15.9444 56.4834C15.5945 56.7614 15.1537 56.8994 14.7077 56.8704C14.2618 56.8415 13.8425 56.6478 13.5314 56.3269L7.66506 50.4622C7.34652 50.1493 7.15569 49.7291 7.12963 49.2834C7.10358 48.8376 7.24417 48.398 7.52409 48.0501L10.3513 44.4177C9.29816 42.5665 8.48085 40.5908 7.91847 38.5366L3.3269 37.9528C2.88703 37.8983 2.48213 37.6853 2.18807 37.3537C1.89401 37.022 1.73097 36.5945 1.72949 36.1513V27.8573C1.72998 27.4131 1.89237 26.9843 2.18626 26.6513C2.48015 26.3182 2.88537 26.1037 3.32603 26.048L7.91587 25.4642C8.47826 23.41 9.29556 21.4343 10.3487 19.5831L7.5163 15.9429C7.23812 15.5931 7.10006 15.1522 7.12899 14.7062C7.15793 14.2602 7.35179 13.8409 7.67284 13.5299L13.5375 7.66527C13.8504 7.35108 14.2675 7.16224 14.7101 7.13436C15.1527 7.10648 15.5902 7.24148 15.9401 7.51392L19.5812 10.3489C21.4323 9.29578 23.4081 8.47847 25.4622 7.91608L26.046 3.32452C26.1022 2.88387 26.3171 2.47882 26.6505 2.18525C26.9839 1.89168 27.4128 1.72972 27.8571 1.72971H36.1425C36.5866 1.73019 37.0154 1.89258 37.3485 2.18647C37.6815 2.48036 37.896 2.88558 37.9518 3.32625L38.5355 7.91608C40.5897 8.47847 42.5655 9.29578 44.4166 10.3489L48.0551 7.51652C48.4064 7.24184 48.8465 7.10599 49.2914 7.13486C49.7364 7.16373 50.1552 7.35529 50.4681 7.67306L56.3327 13.5377C56.6517 13.8503 56.843 14.2703 56.8695 14.7161C56.896 15.1619 56.7559 15.6016 56.4763 15.9498L53.6491 19.5822C54.7022 21.4334 55.5195 23.4091 56.0819 25.4633L60.6735 26.0471C61.1143 26.1029 61.5196 26.3175 61.8136 26.6507C62.1075 26.984 62.2698 27.4129 62.27 27.8573V36.1513C62.2684 36.5943 62.1054 37.0214 61.8115 37.3529C61.5176 37.6843 61.1131 37.8973 60.6735 37.952L56.0828 38.5358C55.8313 39.4688 55.522 40.3853 55.1565 41.28C55.1134 41.385 55.0499 41.4806 54.9699 41.5611C54.8898 41.6416 54.7946 41.7056 54.6898 41.7494C54.585 41.7932 54.4726 41.8159 54.359 41.8162C54.2455 41.8165 54.1329 41.7945 54.0279 41.7513C53.9228 41.7082 53.8273 41.6447 53.7467 41.5647C53.6662 41.4846 53.6022 41.3894 53.5584 41.2846C53.5147 41.1798 53.492 41.0674 53.4916 40.9538C53.4913 40.8403 53.5134 40.7277 53.5565 40.6227C53.9637 39.6208 54.2976 38.5906 54.5554 37.5403C54.5979 37.3715 54.6903 37.2195 54.8205 37.1041C54.9507 36.9887 55.1128 36.9153 55.2854 36.8934L60.4573 36.2361C60.4802 36.2361 60.5022 36.227 60.5184 36.2107C60.5347 36.1945 60.5438 36.1725 60.5438 36.1496V27.8573C60.5447 27.8457 60.5433 27.8341 60.5397 27.823C60.536 27.812 60.5302 27.8019 60.5225 27.7931C60.5148 27.7844 60.5055 27.7773 60.495 27.7723C60.4846 27.7673 60.4732 27.7644 60.4616 27.7639L55.2888 27.1066C55.1156 27.0846 54.9531 27.0107 54.8226 26.8946C54.6922 26.7786 54.6 26.6257 54.558 26.4562C53.9889 24.1681 53.0833 21.9772 51.8709 19.955C51.7815 19.8054 51.7394 19.6323 51.75 19.4584C51.7607 19.2845 51.8236 19.1178 51.9306 18.9803L55.1219 14.8808C55.1366 14.8658 55.1448 14.8456 55.1448 14.8246C55.1448 14.8036 55.1366 14.7834 55.1219 14.7684L49.2408 8.88733C49.2247 8.87164 49.2033 8.86244 49.1809 8.86149C49.1584 8.86053 49.1363 8.86788 49.1189 8.88214L45.0212 12.0718C44.8836 12.1787 44.717 12.2417 44.543 12.2523C44.3691 12.263 44.196 12.2208 44.0465 12.1314C42.0243 10.919 39.8333 10.0135 37.5453 9.4443C37.3758 9.40238 37.2229 9.31013 37.1068 9.17969C36.9907 9.04925 36.9169 8.88672 36.8949 8.71349L36.2376 3.54592C36.2377 3.5338 36.2352 3.5218 36.2303 3.5107C36.2254 3.4996 36.2183 3.48965 36.2093 3.48149C36.2003 3.47334 36.1897 3.46716 36.1782 3.46336C36.1667 3.45956 36.1545 3.45822 36.1425 3.45944H27.8571C27.845 3.45822 27.8328 3.45956 27.8213 3.46336C27.8098 3.46716 27.7992 3.47334 27.7902 3.48149C27.7813 3.48965 27.7741 3.4996 27.7692 3.5107C27.7644 3.5218 27.7619 3.5338 27.7619 3.54592L27.1046 8.71868C27.0827 8.89191 27.0088 9.05444 26.8927 9.18488C26.7766 9.31532 26.6238 9.40757 26.4542 9.44949C24.1662 10.0186 21.9753 10.9242 19.9531 12.1366C19.8035 12.226 19.6304 12.2682 19.4565 12.2575C19.2826 12.2469 19.1159 12.1839 18.9784 12.0769L14.8789 8.8856C14.8632 8.8722 14.8433 8.86483 14.8227 8.86483C14.8021 8.86483 14.7821 8.8722 14.7665 8.8856L8.88538 14.7667C8.87716 14.7732 8.87032 14.7814 8.86526 14.7906C8.86019 14.7998 8.85701 14.8099 8.85588 14.8204C8.85476 14.8308 8.85571 14.8414 8.8587 14.8515C8.86168 14.8616 8.86664 14.871 8.87328 14.8791L12.0733 18.9864C12.1803 19.1239 12.2432 19.2905 12.2538 19.4645C12.2645 19.6384 12.2224 19.8115 12.133 19.9611C10.9205 21.9832 10.015 24.1742 9.44582 26.4622C9.4039 26.6318 9.31165 26.7846 9.18121 26.9007C9.05076 27.0168 8.88824 27.0907 8.71501 27.1126L3.54571 27.7621C3.53374 27.7621 3.5219 27.7645 3.51093 27.7693C3.49996 27.7741 3.4901 27.7811 3.48197 27.7899C3.47384 27.7986 3.46762 27.809 3.46371 27.8203C3.45979 27.8316 3.45826 27.8436 3.45922 27.8555V36.1513C3.45919 36.1735 3.46771 36.1949 3.48301 36.211C3.4983 36.2271 3.5192 36.2367 3.54138 36.2378L8.71414 36.8951C8.88737 36.9171 9.0499 36.9909 9.18034 37.107C9.31078 37.2231 9.40303 37.376 9.44495 37.5455C10.0141 39.8335 10.9197 42.0245 12.1321 44.0467C12.2215 44.1962 12.2636 44.3693 12.253 44.5433C12.2423 44.7172 12.1794 44.8838 12.0724 45.0214L8.88106 49.1208C8.86637 49.1359 8.85815 49.156 8.85815 49.177C8.85815 49.1981 8.86637 49.2182 8.88106 49.2333L14.7621 55.1143C14.7686 55.1227 14.7767 55.1296 14.7859 55.1347C14.7952 55.1399 14.8053 55.1431 14.8158 55.1442C14.8263 55.1453 14.8369 55.1444 14.847 55.1413C14.8571 55.1383 14.8665 55.1332 14.8746 55.1265L18.9818 51.9265C19.1194 51.8195 19.286 51.7565 19.4599 51.7459C19.6339 51.7352 19.807 51.7774 19.9565 51.8668C21.9787 53.0792 24.1696 53.9848 26.4577 54.5539C26.6272 54.5958 26.7801 54.6881 26.8962 54.8185C27.0122 54.949 27.0861 55.1115 27.1081 55.2847L27.7654 60.4566C27.7653 60.4686 27.7678 60.4804 27.7726 60.4914C27.7773 60.5024 27.7843 60.5122 27.7931 60.5204C27.8019 60.5285 27.8123 60.5347 27.8236 60.5386C27.8349 60.5425 27.8469 60.5441 27.8588 60.5431H36.1442C36.1558 60.544 36.1674 60.5426 36.1784 60.539C36.1894 60.5353 36.1996 60.5295 36.2083 60.5218C36.217 60.5142 36.2241 60.5048 36.2292 60.4944C36.2342 60.4839 36.2371 60.4725 36.2376 60.4609L36.8949 55.2882C36.9169 55.1149 36.9907 54.9524 37.1068 54.822C37.2229 54.6915 37.3758 54.5993 37.5453 54.5574C39.8333 53.9882 42.0243 53.0826 44.0465 51.8702C44.196 51.7808 44.3691 51.7387 44.543 51.7493C44.717 51.76 44.8836 51.8229 45.0212 51.9299L49.1206 55.1213C49.1358 55.1357 49.1559 55.1438 49.1768 55.1438C49.1978 55.1438 49.2179 55.1357 49.2331 55.1213L52.3985 51.9645C52.4789 51.8842 52.5743 51.8205 52.6793 51.7771C52.7844 51.7337 52.8969 51.7114 53.0105 51.7115C53.1242 51.7116 53.2367 51.734 53.3416 51.7776C53.4466 51.8212 53.542 51.885 53.6222 51.9654C53.7025 52.0458 53.7662 52.1412 53.8096 52.2462C53.853 52.3513 53.8754 52.4638 53.8753 52.5774C53.8752 52.6911 53.8527 52.8036 53.8092 52.9085C53.7656 53.0135 53.7018 53.1089 53.6214 53.1892L50.4646 56.3373C50.1521 56.656 49.7322 56.8471 49.2865 56.8735C48.8409 56.8999 48.4014 56.7596 48.0534 56.48L44.421 53.6527C42.5698 54.7059 40.5941 55.5232 38.5399 56.0856L37.9561 60.6772C37.8995 61.1179 37.684 61.5229 37.3501 61.8162C37.0163 62.1095 36.5869 62.2709 36.1425 62.2702V62.2702Z" fill="#F2A83D"/>
<path d="M32.0001 49.8742C27.3204 49.7821 22.8635 47.8585 19.5866 44.5164C16.3097 41.1744 14.4741 36.6805 14.4741 32C14.4741 27.3195 16.3097 22.8256 19.5866 19.4836C22.8635 16.1415 27.3204 14.2179 32.0001 14.1258C36.6797 14.2179 41.1366 16.1415 44.4135 19.4836C47.6904 22.8256 49.526 27.3195 49.526 32C49.526 36.6805 47.6904 41.1744 44.4135 44.5164C41.1366 47.8585 36.6797 49.7821 32.0001 49.8742ZM32.0001 15.8556C27.768 15.9089 23.7298 17.6385 20.7711 20.665C17.8124 23.6915 16.1747 27.7678 16.2171 32C16.1747 36.2322 17.8124 40.3085 20.7711 43.335C23.7298 46.3615 27.768 48.0911 32.0001 48.1444C36.2322 48.0911 40.2704 46.3615 43.2291 43.335C46.1878 40.3085 47.8255 36.2322 47.783 32C47.8255 27.7678 46.1878 23.6915 43.2291 20.665C40.2704 17.6385 36.2322 15.9089 32.0001 15.8556Z" fill="#F2A83D"/>
<path d="M45.8908 42.24C45.7459 42.2401 45.6033 42.2039 45.476 42.1345C45.3488 42.0651 45.241 41.9649 45.1626 41.843C43.758 39.6229 41.8146 37.794 39.5133 36.5268C37.2119 35.2595 34.6274 34.5949 32.0002 34.5949C29.373 34.5949 26.7885 35.2595 24.4872 36.5268C22.1858 37.794 20.2424 39.6229 18.8378 41.843C18.7098 42.0265 18.5157 42.1533 18.2962 42.1966C18.0767 42.24 17.8489 42.1966 17.6607 42.0756C17.4726 41.9546 17.3386 41.7654 17.287 41.5477C17.2354 41.33 17.2702 41.1007 17.384 40.9081C18.9452 38.4446 21.1038 36.4157 23.6591 35.0099C26.2145 33.604 29.0837 32.8668 32.0002 32.8668C34.9168 32.8668 37.786 33.604 40.3413 35.0099C42.8967 36.4157 45.0552 38.4446 46.6164 40.9081C46.7004 41.0387 46.7477 41.1895 46.7534 41.3446C46.759 41.4998 46.7227 41.6536 46.6484 41.7899C46.5741 41.9263 46.4645 42.0401 46.331 42.1194C46.1976 42.1988 46.0452 42.2407 45.8899 42.2409L45.8908 42.24Z" fill="#F2A83D"/>
<path d="M32 34.5946C30.6315 34.5946 29.2938 34.1888 28.156 33.4286C27.0182 32.6683 26.1314 31.5877 25.6077 30.3234C25.0841 29.0592 24.947 27.668 25.214 26.3259C25.481 24.9837 26.1399 23.7509 27.1076 22.7833C28.0752 21.8156 29.308 21.1567 30.6502 20.8897C31.9923 20.6227 33.3835 20.7598 34.6477 21.2834C35.912 21.8071 36.9926 22.6939 37.7529 23.8317C38.5131 24.9696 38.9189 26.3073 38.9189 27.6757C38.9168 29.5101 38.1872 31.2687 36.8901 32.5658C35.593 33.8629 33.8344 34.5925 32 34.5946ZM32 22.4865C30.9737 22.4865 29.9704 22.7908 29.117 23.361C28.2637 23.9312 27.5985 24.7417 27.2058 25.6899C26.813 26.6381 26.7103 27.6814 26.9105 28.688C27.1107 29.6947 27.6049 30.6193 28.3307 31.345C29.0564 32.0707 29.981 32.5649 30.9876 32.7652C31.9942 32.9654 33.0376 32.8626 33.9858 32.4699C34.934 32.0771 35.7444 31.412 36.3146 30.5586C36.8848 29.7053 37.1892 28.702 37.1892 27.6757C37.1878 26.2998 36.6406 24.9808 35.6678 24.0079C34.6949 23.035 33.3758 22.4879 32 22.4865Z" fill="#F2A83D"/>
</svg>
