<svg width="64" height="64" viewBox="0 0 64 64"  xmlns="http://www.w3.org/2000/svg">
<path d="M53.1807 12.4714C53.0632 12.4713 52.9469 12.4473 52.8389 12.4007C52.7309 12.3542 52.6336 12.2861 52.5528 12.2007C52.0158 11.6342 51.4078 11.0556 50.6934 10.4338C50.5292 10.2809 50.4309 10.0702 50.4192 9.84622C50.4074 9.62222 50.4831 9.40242 50.6304 9.2332C50.7776 9.06398 50.9848 8.95858 51.2083 8.93924C51.4317 8.91989 51.654 8.98813 51.8281 9.12954C52.5857 9.7877 53.2335 10.4035 53.8086 11.0115C53.925 11.1342 54.0028 11.2884 54.0324 11.4548C54.0621 11.6213 54.0423 11.7929 53.9755 11.9482C53.9087 12.1036 53.7978 12.2359 53.6565 12.3289C53.5153 12.4219 53.3498 12.4714 53.1807 12.4714Z" fill="#F2A83D"/>
<path d="M32 62.2703C27.7574 62.2679 23.5627 61.3737 19.688 59.6458C15.8132 57.9178 12.345 55.3946 9.50824 52.2398C6.67148 49.0851 4.52957 45.3693 3.22143 41.3334C1.91328 37.2975 1.46813 33.0317 1.91485 28.8127C2.36157 24.5937 3.69017 20.5158 5.81449 16.8433C7.9388 13.1709 10.8114 9.98599 14.2459 7.49527C17.6804 5.00454 21.6001 3.2636 25.7508 2.38538C29.9015 1.50715 34.1905 1.51124 38.3395 2.3974C38.4505 2.42119 38.5558 2.46663 38.6494 2.53112C38.7429 2.59561 38.8228 2.67789 38.8845 2.77326C38.9462 2.86863 38.9885 2.97522 39.0091 3.08695C39.0296 3.19867 39.0279 3.31335 39.0041 3.42443C38.9803 3.5355 38.9349 3.64081 38.8704 3.73432C38.8059 3.82784 38.7236 3.90774 38.6282 3.96946C38.5329 4.03117 38.4263 4.0735 38.3146 4.09403C38.2028 4.11455 38.0882 4.11287 37.9771 4.08908C31.5647 2.72147 24.8769 3.60589 19.0405 6.59332C13.204 9.58076 8.57566 14.4886 5.93517 20.49C3.29468 26.4914 2.80346 33.2195 4.54427 39.5408C6.28507 45.862 10.1515 51.3901 15.4921 55.1936C20.8328 58.9971 27.3212 60.8435 33.8642 60.4218C40.4072 60 46.6049 57.336 51.4131 52.8783C56.2212 48.4207 59.346 42.442 60.2609 35.9496C61.1758 29.4572 59.825 22.8478 56.4359 17.235C56.3772 17.1378 56.3382 17.03 56.3211 16.9177C56.3041 16.8054 56.3093 16.6908 56.3366 16.5806C56.3638 16.4703 56.4125 16.3665 56.4798 16.275C56.5472 16.1836 56.6319 16.1063 56.7291 16.0476C56.8263 15.9888 56.9341 15.9498 57.0464 15.9328C57.1587 15.9158 57.2733 15.921 57.3835 15.9482C57.4938 15.9755 57.5976 16.0241 57.6891 16.0915C57.7805 16.1588 57.8578 16.2435 57.9165 16.3408C60.6873 20.9339 62.1885 26.1806 62.2664 31.5443C62.3444 36.9079 60.9964 42.196 58.3602 46.8678C55.7241 51.5396 51.8945 55.4274 47.2629 58.1336C42.6314 60.8398 37.3642 62.2674 32 62.2703Z" fill="#F2A83D"/>
<path d="M46.2869 7.15246C46.1394 7.15235 45.9944 7.11454 45.8657 7.04262C45.1946 6.6664 44.4819 6.31008 43.6845 5.95203C43.4782 5.85616 43.3179 5.68285 43.2385 5.46967C43.1591 5.25648 43.1668 5.02058 43.2601 4.81308C43.3534 4.60558 43.5247 4.44319 43.7369 4.3611C43.9491 4.27901 44.185 4.28383 44.3937 4.37451C45.2369 4.75419 45.9954 5.133 46.7107 5.53257C46.8779 5.62601 47.0094 5.77236 47.0845 5.94863C47.1596 6.12491 47.1741 6.32113 47.1256 6.50649C47.0771 6.69185 46.9684 6.85586 46.8166 6.97278C46.6648 7.0897 46.4785 7.1529 46.2869 7.15246Z" fill="#F2A83D"/>
<path d="M30.5229 47.315C30.35 47.3152 30.1811 47.2635 30.0379 47.1667C29.8947 47.0699 29.7837 46.9324 29.7194 46.7719L19.1015 20.2257C19.0386 20.0686 19.0232 19.8964 19.0572 19.7305C19.0912 19.5647 19.1732 19.4125 19.2929 19.2928C19.4126 19.1731 19.5648 19.0911 19.7306 19.0571C19.8965 19.0231 20.0686 19.0385 20.2258 19.1014L46.772 29.7194C46.9367 29.7851 47.0772 29.8999 47.1745 30.0482C47.2718 30.1965 47.3212 30.3711 47.3159 30.5484C47.3106 30.7257 47.251 30.8971 47.145 31.0393C47.039 31.1815 46.8919 31.2878 46.7235 31.3436L35.1888 35.1888L31.3436 46.7235C31.2877 46.8917 31.1813 47.0388 31.039 47.1446C30.8967 47.2504 30.7253 47.3099 30.548 47.315H30.5229ZM21.4574 21.4573L30.4494 43.9351L33.684 34.2296C33.7264 34.1021 33.798 33.9862 33.893 33.8912C33.9881 33.7962 34.1039 33.7246 34.2314 33.6822L43.9352 30.4493L21.4574 21.4573Z" fill="#F2A83D"/>
</svg>
