<svg width="153" height="690" viewBox="0 0 153 690" fill="none" xmlns="http://www.w3.org/2000/svg">
<path d="M0.75 7.74999C13.6953 3.51786 31.7796 -2.37335 44.5 4.97221C47.4611 6.68214 53.25 8.75041 53.25 12.75C53.25 15.8713 50.75 17.2576 50.75 20.8055C50.75 29.127 60.9507 27.75 66.7222 27.75C77.3394 27.75 91.925 25.9764 101.861 30.9444C104.515 32.2715 97.8933 39.7052 96.4444 41.3611C90.9345 47.6582 104.32 53.9093 107.972 56.0833C116.322 61.0535 117 62.2114 117 71.5C117 83.1079 138.25 83.8187 138.25 97.0555C138.25 107.007 138.447 116.59 139.431 126.431C142.572 157.847 89.3798 148.631 71.3056 153.028C64.0091 154.803 60.4725 173.961 63.9444 179.417C64.9652 181.021 71.5289 182.2 73.25 183.028C84.553 188.462 71.5605 188.708 64.9167 189.278C57.1325 189.945 44.7662 188.527 37.7639 191.639C33.7891 193.405 40.081 205.794 41.0278 207.125C52.8942 223.812 70.6907 222.611 87.8333 227.611C105.532 232.773 122.843 238.025 140.819 242.125C145.201 243.124 153.031 246.139 151.931 252.194C150.482 260.161 140.229 262.937 140.75 269.972C141.108 274.806 147.695 275.273 149.292 279C150.164 281.035 149.753 285.746 149.222 287.75C147.879 292.823 144.5 295.221 144.5 301.361C144.5 306.767 142.867 313.239 140.472 318.028C135.369 328.234 129.63 334.68 129.5 346.5C129.318 363.024 138.492 374.544 146.722 388.167C151.909 396.751 124.228 392.75 121.167 392.75C99.1012 392.75 76.9726 392.276 54.9167 393.028C50.2315 393.187 45.7995 393.345 41.5139 395.25C36.5588 397.452 50.6305 404.448 51.1667 404.694C60.0262 408.759 72.4081 412.246 79.5 419C83.3498 422.667 88.2947 426.489 92.9722 429.069C97.4216 431.524 112.3 433.759 114.292 439.069C115.643 442.674 115.698 445.441 118.25 448.722C120.8 452.001 128.809 454.39 129.5 459C130.984 468.896 140.75 468.915 140.75 478.931C140.75 487.637 142.99 496.007 141.861 505.042C141.069 511.377 135.507 518.883 131.306 523.444C124.418 530.922 116.643 531.464 107.833 536.083C103.555 538.327 101.071 542.659 97 544.694C94.1208 546.134 88.0364 547.579 87.1389 550.944C86.4133 553.665 85.8746 561.427 87.2778 564C88.2506 565.783 99.7698 575.012 98.1111 576.222C93.5245 579.569 84.5673 579.935 79.2222 580.944C69.5177 582.778 59.6141 582.815 49.9167 584.556C39.6002 586.407 64.7144 599.175 66.4444 599.833C76.0289 603.48 85.6852 606.494 95.6806 608.792C99.805 609.74 106.053 610.004 108.944 613.722C110.749 616.042 112.625 618.023 114.5 620.25C117.425 623.723 113.192 627.088 110.889 629.556C105.564 635.261 126.032 645.531 129.153 647.611C144.811 658.05 129.5 674.158 129.5 689" stroke="white" stroke-linecap="round"/>
</svg>
