<?xml version="1.0" encoding="utf-8"?>
<!-- Generator: Adobe Illustrator 25.3.1, SVG Export Plug-In . SVG Version: 6.00 Build 0)  -->
<svg version="1.1" id="Слой_1" xmlns="http://www.w3.org/2000/svg" xmlns:xlink="http://www.w3.org/1999/xlink" x="0px" y="0px"
	 viewBox="0 0 153 690" style="enable-background:new 0 0 153 690;" xml:space="preserve">
<style type="text/css">
	.st0{fill:none;stroke:#FFFFFF;stroke-linecap:round;}
</style>
<path class="st0" d="M0.8,7.7C14,3,27,0,41,3c4,1,8,3,11,6c3,4,0,8-1,12c-1,5,5,6,8,7c14,1,30-5,43,3c1,1,0,3-1,5c-1,4-7,6-6,10
	c3,7,12,8,18,13c4,4,4,8,4,13c1,9,12,11,18,17c2,2,3,4,3,6c0,13,3,26,0,40c0,5-5,9-10,11c-19,8-39,4-58,7c-7,6-8,16-6,25
	c0,3,5,4,9,5c2,1,4,3,4,3c-11,6-23,3-35,4c-3,0-6,3-6,6c1,12,11,20,21,23c29,10,58,16,88,24c3,1,6,4,7,6c2,7-6,11-10,16
	c-1,2-2,4-1,6c2,4,9,5,8,10c-1,12-5,24-8,36c-2,5-5,9-8,14c-8,19,0,38,12,54c1,2,4,7,0,7c-34,4-68-2-102,2c-1,0-3,1-2,4c1,1,2,2,3,3
	c16,8,32,13,45,26c6,5,14,5,21,8c2,1,4,3,5,5c2,4,1,9,7,11c2,2,6,3,7,6c2,7,7,10,10,16c4,12,6,27,1,39c-3,7-9,14-16,17
	c-5,2-11,5-16,7c-6,3-10,8-17,11c-4,2-4,5-4.5,9.2"/>
</svg>
